{"asset":{"generator":"Khronos glTF Blender I/O v4.0.44","version":"2.0","copyright":"Quaternius / CC0-1.0; see ASSET-REGISTER.json"},"scene":0,"scenes":[{"name":"Scene","nodes":[0]}],"nodes":[{"mesh":0,"name":"Anvil_Log"}],"materials":[{"doubleSided":true,"name":"MI_Trim_Furniture","normalTexture":{"index":0},"pbrMetallicRoughness":{"baseColorTexture":{"index":1},"metallicRoughnessTexture":{"index":2}},"occlusionTexture":{"index":2,"strength":0.65}},{"doubleSided":true,"name":"MI_Trim_Metal","normalTexture":{"index":3},"pbrMetallicRoughness":{"baseColorTexture":{"index":4},"metallicRoughnessTexture":{"index":5}},"occlusionTexture":{"index":5,"strength":0.65}},{"doubleSided":true,"name":"MI_Trim_Props","normalTexture":{"index":6},"pbrMetallicRoughness":{"baseColorTexture":{"index":7},"metallicRoughnessTexture":{"index":8}},"occlusionTexture":{"index":8,"strength":0.65}}],"meshes":[{"name":"Cylinder.036","primitives":[{"attributes":{"POSITION":0,"NORMAL":1,"TEXCOORD_0":2},"indices":3,"material":0},{"attributes":{"POSITION":4,"NORMAL":5,"TEXCOORD_0":6},"indices":7,"material":1},{"attributes":{"POSITION":8,"NORMAL":9,"TEXCOORD_0":10},"indices":11,"material":2}]}],"textures":[{"sampler":0,"source":0},{"sampler":0,"source":1},{"sampler":0,"source":2},{"sampler":0,"source":3},{"sampler":0,"source":4},{"sampler":0,"source":5},{"sampler":0,"source":6},{"sampler":0,"source":7},{"sampler":0,"source":8}],"images":[{"mimeType":"image/png","name":"T_Trim_Furniture_Normal","uri":"T_Trim_Furniture_Normal.png"},{"mimeType":"image/png","name":"T_Trim_Furniture_BaseColor","uri":"T_Trim_Furniture_BaseColor.png"},{"mimeType":"image/png","name":"T_Trim_Furniture_ORM","uri":"T_Trim_Furniture_ORM.png"},{"mimeType":"image/png","name":"T_Trim_Metal_Normal","uri":"T_Trim_Metal_Normal.png"},{"mimeType":"image/png","name":"T_Trim_Metal_BaseColor","uri":"T_Trim_Metal_BaseColor.png"},{"mimeType":"image/png","name":"T_Trim_Metal_ORM","uri":"T_Trim_Metal_ORM.png"},{"mimeType":"image/png","name":"T_Trim_Props_Normal","uri":"T_Trim_Props_Normal.png"},{"mimeType":"image/png","name":"T_Trim_Props_BaseColor","uri":"T_Trim_Props_BaseColor.png"},{"mimeType":"image/png","name":"T_Trim_Props_ORM","uri":"T_Trim_Props_ORM.png"}],"accessors":[{"bufferView":0,"componentType":5126,"count":72,"max":[0.3469201326370239,0.6106407046318054,0.3469201326370239],"min":[-0.3469201326370239,0.0014315724838525057,-0.3469201326370239],"type":"VEC3"},{"bufferView":1,"componentType":5126,"count":72,"type":"VEC3"},{"bufferView":2,"componentType":5126,"count":72,"type":"VEC2"},{"bufferView":3,"componentType":5123,"count":276,"type":"SCALAR"},{"bufferView":4,"componentType":5126,"count":1457,"max":[0.5173688530921936,1.0748099088668823,0.46267634630203247],"min":[-0.41191795468330383,0.027409493923187256,-0.3453666865825653],"type":"VEC3"},{"bufferView":5,"componentType":5126,"count":1457,"type":"VEC3"},{"bufferView":6,"componentType":5126,"count":1457,"type":"VEC2"},{"bufferView":7,"componentType":5123,"count":4338,"type":"SCALAR"},{"bufferView":8,"componentType":5126,"count":1847,"max":[0.3469201326370239,0.6106407046318054,0.4744724631309509],"min":[-0.3469201326370239,0.0014315724838525057,-0.3469201326370239],"type":"VEC3"},{"bufferView":9,"componentType":5126,"count":1847,"type":"VEC3"},{"bufferView":10,"componentType":5126,"count":1847,"type":"VEC2"},{"bufferView":11,"componentType":5123,"count":6810,"type":"SCALAR"}],"bufferViews":[{"buffer":0,"byteLength":864,"byteOffset":0,"target":34962},{"buffer":0,"byteLength":864,"byteOffset":864,"target":34962},{"buffer":0,"byteLength":576,"byteOffset":1728,"target":34962},{"buffer":0,"byteLength":552,"byteOffset":2304,"target":34963},{"buffer":0,"byteLength":17484,"byteOffset":2856,"target":34962},{"buffer":0,"byteLength":17484,"byteOffset":20340,"target":34962},{"buffer":0,"byteLength":11656,"byteOffset":37824,"target":34962},{"buffer":0,"byteLength":8676,"byteOffset":49480,"target":34963},{"buffer":0,"byteLength":22164,"byteOffset":58156,"target":34962},{"buffer":0,"byteLength":22164,"byteOffset":80320,"target":34962},{"buffer":0,"byteLength":14776,"byteOffset":102484,"target":34962},{"buffer":0,"byteLength":13620,"byteOffset":117260,"target":34963}],"samplers":[{"magFilter":9729,"minFilter":9987}],"buffers":[{"byteLength":130880,"uri":"Anvil_Log.bin"}]}