{"asset":{"generator":"Khronos glTF Blender I/O v4.0.44","version":"2.0","copyright":"Quaternius / CC0-1.0; see ASSET-REGISTER.json"},"scene":0,"scenes":[{"name":"Scene","nodes":[0]}],"nodes":[{"mesh":0,"name":"Barrel_Apples"}],"materials":[{"doubleSided":true,"name":"MI_Trim_Furniture","normalTexture":{"index":0},"pbrMetallicRoughness":{"baseColorTexture":{"index":1},"metallicRoughnessTexture":{"index":2}},"occlusionTexture":{"index":2,"strength":0.65}},{"doubleSided":true,"name":"MI_Trim_Metal","normalTexture":{"index":3},"pbrMetallicRoughness":{"baseColorTexture":{"index":4},"metallicRoughnessTexture":{"index":5}},"occlusionTexture":{"index":5,"strength":0.65}},{"doubleSided":true,"name":"MI_Trim_Props_Vertex","normalTexture":{"index":6},"pbrMetallicRoughness":{"baseColorTexture":{"index":7},"metallicRoughnessTexture":{"index":8}},"occlusionTexture":{"index":8,"strength":0.65}}],"meshes":[{"name":"Cylinder.054","primitives":[{"attributes":{"COLOR_0":0,"POSITION":1,"NORMAL":2,"TEXCOORD_0":3},"indices":4,"material":0},{"attributes":{"COLOR_0":5,"POSITION":6,"NORMAL":7,"TEXCOORD_0":8},"indices":9,"material":1},{"attributes":{"COLOR_0":10,"POSITION":11,"NORMAL":12,"TEXCOORD_0":13},"indices":14,"material":2}]}],"textures":[{"sampler":0,"source":0},{"sampler":0,"source":1},{"sampler":0,"source":2},{"sampler":0,"source":3},{"sampler":0,"source":4},{"sampler":0,"source":5},{"sampler":0,"source":6},{"sampler":0,"source":7},{"sampler":0,"source":8}],"images":[{"mimeType":"image/png","name":"T_Trim_Furniture_Normal","uri":"T_Trim_Furniture_Normal.png"},{"mimeType":"image/png","name":"T_Trim_Furniture_BaseColor","uri":"T_Trim_Furniture_BaseColor.png"},{"mimeType":"image/png","name":"T_Trim_Furniture_ORM","uri":"T_Trim_Furniture_ORM.png"},{"mimeType":"image/png","name":"T_Trim_Metal_Normal","uri":"T_Trim_Metal_Normal.png"},{"mimeType":"image/png","name":"T_Trim_Metal_BaseColor","uri":"T_Trim_Metal_BaseColor.png"},{"mimeType":"image/png","name":"T_Trim_Metal_ORM","uri":"T_Trim_Metal_ORM.png"},{"mimeType":"image/png","name":"T_Trim_Props_Normal","uri":"T_Trim_Props_Normal.png"},{"mimeType":"image/png","name":"T_Trim_Props_BaseColor","uri":"T_Trim_Props_BaseColor.png"},{"mimeType":"image/png","name":"T_Trim_Props_ORM","uri":"T_Trim_Props_ORM.png"}],"accessors":[{"bufferView":0,"componentType":5123,"count":473,"normalized":true,"type":"VEC4"},{"bufferView":1,"componentType":5126,"count":473,"max":[0.3480248749256134,0.9013950824737549,0.3480248749256134],"min":[-0.3480248749256134,0.003436744213104248,-0.3480248749256134],"type":"VEC3"},{"bufferView":2,"componentType":5126,"count":473,"type":"VEC3"},{"bufferView":3,"componentType":5126,"count":473,"type":"VEC2"},{"bufferView":4,"componentType":5123,"count":1176,"type":"SCALAR"},{"bufferView":5,"componentType":5123,"count":726,"normalized":true,"type":"VEC4"},{"bufferView":6,"componentType":5126,"count":726,"max":[0.3490154445171356,0.7329425811767578,0.3490155041217804],"min":[-0.34901556372642517,0.14952683448791504,-0.349015474319458],"type":"VEC3"},{"bufferView":7,"componentType":5126,"count":726,"type":"VEC3"},{"bufferView":8,"componentType":5126,"count":726,"type":"VEC2"},{"bufferView":9,"componentType":5123,"count":1296,"type":"SCALAR"},{"bufferView":10,"componentType":5123,"count":1044,"normalized":true,"type":"VEC4"},{"bufferView":11,"componentType":5126,"count":1044,"max":[0.21615931391716003,0.8800793886184692,0.22505947947502136],"min":[-0.2171129733324051,0.6426482200622559,-0.21824856102466583],"type":"VEC3"},{"bufferView":12,"componentType":5126,"count":1044,"type":"VEC3"},{"bufferView":13,"componentType":5126,"count":1044,"type":"VEC2"},{"bufferView":14,"componentType":5123,"count":4968,"type":"SCALAR"}],"bufferViews":[{"buffer":0,"byteLength":3784,"byteOffset":0,"target":34962},{"buffer":0,"byteLength":5676,"byteOffset":3784,"target":34962},{"buffer":0,"byteLength":5676,"byteOffset":9460,"target":34962},{"buffer":0,"byteLength":3784,"byteOffset":15136,"target":34962},{"buffer":0,"byteLength":2352,"byteOffset":18920,"target":34963},{"buffer":0,"byteLength":5808,"byteOffset":21272,"target":34962},{"buffer":0,"byteLength":8712,"byteOffset":27080,"target":34962},{"buffer":0,"byteLength":8712,"byteOffset":35792,"target":34962},{"buffer":0,"byteLength":5808,"byteOffset":44504,"target":34962},{"buffer":0,"byteLength":2592,"byteOffset":50312,"target":34963},{"buffer":0,"byteLength":8352,"byteOffset":52904,"target":34962},{"buffer":0,"byteLength":12528,"byteOffset":61256,"target":34962},{"buffer":0,"byteLength":12528,"byteOffset":73784,"target":34962},{"buffer":0,"byteLength":8352,"byteOffset":86312,"target":34962},{"buffer":0,"byteLength":9936,"byteOffset":94664,"target":34963}],"samplers":[{"magFilter":9729,"minFilter":9987}],"buffers":[{"byteLength":104600,"uri":"Barrel_Apples.bin"}]}