{"asset":{"generator":"Khronos glTF Blender I/O v4.0.44","version":"2.0","copyright":"Quaternius / CC0-1.0; see ASSET-REGISTER.json"},"scene":0,"scenes":[{"name":"Scene","nodes":[0]}],"nodes":[{"mesh":0,"name":"Chair_1"}],"materials":[{"doubleSided":true,"name":"MI_Trim_Furniture","normalTexture":{"index":0},"pbrMetallicRoughness":{"baseColorTexture":{"index":1},"metallicRoughnessTexture":{"index":2}},"occlusionTexture":{"index":2,"strength":0.65}},{"doubleSided":true,"name":"MI_Trim_Metal","normalTexture":{"index":3},"pbrMetallicRoughness":{"baseColorTexture":{"index":4},"metallicRoughnessTexture":{"index":5}},"occlusionTexture":{"index":5,"strength":0.65}}],"meshes":[{"name":"Cube.180","primitives":[{"attributes":{"COLOR_0":0,"POSITION":1,"NORMAL":2,"TEXCOORD_0":3},"indices":4,"material":0},{"attributes":{"COLOR_0":5,"POSITION":6,"NORMAL":7,"TEXCOORD_0":8},"indices":9,"material":1}]}],"textures":[{"sampler":0,"source":0},{"sampler":0,"source":1},{"sampler":0,"source":2},{"sampler":0,"source":3},{"sampler":0,"source":4},{"sampler":0,"source":5}],"images":[{"mimeType":"image/png","name":"T_Trim_Furniture_Normal","uri":"T_Trim_Furniture_Normal.png"},{"mimeType":"image/png","name":"T_Trim_Furniture_BaseColor","uri":"T_Trim_Furniture_BaseColor.png"},{"mimeType":"image/png","name":"T_Trim_Furniture_ORM","uri":"T_Trim_Furniture_ORM.png"},{"mimeType":"image/png","name":"T_Trim_Metal_Normal","uri":"T_Trim_Metal_Normal.png"},{"mimeType":"image/png","name":"T_Trim_Metal_BaseColor","uri":"T_Trim_Metal_BaseColor.png"},{"mimeType":"image/png","name":"T_Trim_Metal_ORM","uri":"T_Trim_Metal_ORM.png"}],"accessors":[{"bufferView":0,"componentType":5123,"count":532,"normalized":true,"type":"VEC4"},{"bufferView":1,"componentType":5126,"count":532,"max":[0.29025912284851074,1.1205782890319824,0.25739121437072754],"min":[-0.29025912284851074,-0.0027060508728027344,-0.29154688119888306],"type":"VEC3"},{"bufferView":2,"componentType":5126,"count":532,"type":"VEC3"},{"bufferView":3,"componentType":5126,"count":532,"type":"VEC2"},{"bufferView":4,"componentType":5123,"count":1092,"type":"SCALAR"},{"bufferView":5,"componentType":5123,"count":96,"normalized":true,"type":"VEC4"},{"bufferView":6,"componentType":5126,"count":96,"max":[0.2582123279571533,0.5030284523963928,0.19018174707889557],"min":[-0.2572818100452423,0.4905261695384979,-0.20436809957027435],"type":"VEC3"},{"bufferView":7,"componentType":5126,"count":96,"type":"VEC3"},{"bufferView":8,"componentType":5126,"count":96,"type":"VEC2"},{"bufferView":9,"componentType":5123,"count":396,"type":"SCALAR"}],"bufferViews":[{"buffer":0,"byteLength":4256,"byteOffset":0,"target":34962},{"buffer":0,"byteLength":6384,"byteOffset":4256,"target":34962},{"buffer":0,"byteLength":6384,"byteOffset":10640,"target":34962},{"buffer":0,"byteLength":4256,"byteOffset":17024,"target":34962},{"buffer":0,"byteLength":2184,"byteOffset":21280,"target":34963},{"buffer":0,"byteLength":768,"byteOffset":23464,"target":34962},{"buffer":0,"byteLength":1152,"byteOffset":24232,"target":34962},{"buffer":0,"byteLength":1152,"byteOffset":25384,"target":34962},{"buffer":0,"byteLength":768,"byteOffset":26536,"target":34962},{"buffer":0,"byteLength":792,"byteOffset":27304,"target":34963}],"samplers":[{"magFilter":9729,"minFilter":9987}],"buffers":[{"byteLength":28096,"uri":"Chair_1.bin"}]}