{"asset":{"generator":"Khronos glTF Blender I/O v4.0.44","version":"2.0","copyright":"Quaternius / CC0-1.0; see ASSET-REGISTER.json"},"scene":0,"scenes":[{"name":"Scene","nodes":[0]}],"nodes":[{"mesh":0,"name":"FarmCrate_Apple"}],"materials":[{"doubleSided":true,"name":"MI_Trim_Furniture","normalTexture":{"index":0},"pbrMetallicRoughness":{"baseColorTexture":{"index":1},"metallicRoughnessTexture":{"index":2}},"occlusionTexture":{"index":2,"strength":0.65}},{"doubleSided":true,"name":"MI_Trim_Metal","normalTexture":{"index":3},"pbrMetallicRoughness":{"baseColorTexture":{"index":4},"metallicRoughnessTexture":{"index":5}},"occlusionTexture":{"index":5,"strength":0.65}},{"doubleSided":true,"name":"MI_Trim_Props_Vertex","normalTexture":{"index":6},"pbrMetallicRoughness":{"baseColorTexture":{"index":7},"metallicRoughnessTexture":{"index":8}},"occlusionTexture":{"index":8,"strength":0.65}}],"meshes":[{"name":"Cylinder.057","primitives":[{"attributes":{"COLOR_0":0,"POSITION":1,"NORMAL":2,"TEXCOORD_0":3},"indices":4,"material":0},{"attributes":{"COLOR_0":5,"POSITION":6,"NORMAL":7,"TEXCOORD_0":8},"indices":9,"material":1},{"attributes":{"COLOR_0":10,"POSITION":11,"NORMAL":12,"TEXCOORD_0":13},"indices":14,"material":2}]}],"textures":[{"sampler":0,"source":0},{"sampler":0,"source":1},{"sampler":0,"source":2},{"sampler":0,"source":3},{"sampler":0,"source":4},{"sampler":0,"source":5},{"sampler":0,"source":6},{"sampler":0,"source":7},{"sampler":0,"source":8}],"images":[{"mimeType":"image/png","name":"T_Trim_Furniture_Normal","uri":"T_Trim_Furniture_Normal.png"},{"mimeType":"image/png","name":"T_Trim_Furniture_BaseColor","uri":"T_Trim_Furniture_BaseColor.png"},{"mimeType":"image/png","name":"T_Trim_Furniture_ORM","uri":"T_Trim_Furniture_ORM.png"},{"mimeType":"image/png","name":"T_Trim_Metal_Normal","uri":"T_Trim_Metal_Normal.png"},{"mimeType":"image/png","name":"T_Trim_Metal_BaseColor","uri":"T_Trim_Metal_BaseColor.png"},{"mimeType":"image/png","name":"T_Trim_Metal_ORM","uri":"T_Trim_Metal_ORM.png"},{"mimeType":"image/png","name":"T_Trim_Props_Normal","uri":"T_Trim_Props_Normal.png"},{"mimeType":"image/png","name":"T_Trim_Props_BaseColor","uri":"T_Trim_Props_BaseColor.png"},{"mimeType":"image/png","name":"T_Trim_Props_ORM","uri":"T_Trim_Props_ORM.png"}],"accessors":[{"bufferView":0,"componentType":5123,"count":556,"normalized":true,"type":"VEC4"},{"bufferView":1,"componentType":5126,"count":556,"max":[0.35689881443977356,0.227791890501976,0.1984616219997406],"min":[-0.35689881443977356,-0.01598539389669895,-0.1984616219997406],"type":"VEC3"},{"bufferView":2,"componentType":5126,"count":556,"type":"VEC3"},{"bufferView":3,"componentType":5126,"count":556,"type":"VEC2"},{"bufferView":4,"componentType":5123,"count":1608,"type":"SCALAR"},{"bufferView":5,"componentType":5123,"count":288,"normalized":true,"type":"VEC4"},{"bufferView":6,"componentType":5126,"count":288,"max":[0.28873270750045776,0.20590126514434814,0.20708000659942627],"min":[-0.29124000668525696,0.017275460064411163,-0.20708000659942627],"type":"VEC3"},{"bufferView":7,"componentType":5126,"count":288,"type":"VEC3"},{"bufferView":8,"componentType":5126,"count":288,"type":"VEC2"},{"bufferView":9,"componentType":5123,"count":1368,"type":"SCALAR"},{"bufferView":10,"componentType":5123,"count":1914,"normalized":true,"type":"VEC4"},{"bufferView":11,"componentType":5126,"count":1914,"max":[0.28461936116218567,0.18466512858867645,0.18101544678211212],"min":[-0.27794501185417175,-0.011358273215591908,-0.17553743720054626],"type":"VEC3"},{"bufferView":12,"componentType":5126,"count":1914,"type":"VEC3"},{"bufferView":13,"componentType":5126,"count":1914,"type":"VEC2"},{"bufferView":14,"componentType":5123,"count":9108,"type":"SCALAR"}],"bufferViews":[{"buffer":0,"byteLength":4448,"byteOffset":0,"target":34962},{"buffer":0,"byteLength":6672,"byteOffset":4448,"target":34962},{"buffer":0,"byteLength":6672,"byteOffset":11120,"target":34962},{"buffer":0,"byteLength":4448,"byteOffset":17792,"target":34962},{"buffer":0,"byteLength":3216,"byteOffset":22240,"target":34963},{"buffer":0,"byteLength":2304,"byteOffset":25456,"target":34962},{"buffer":0,"byteLength":3456,"byteOffset":27760,"target":34962},{"buffer":0,"byteLength":3456,"byteOffset":31216,"target":34962},{"buffer":0,"byteLength":2304,"byteOffset":34672,"target":34962},{"buffer":0,"byteLength":2736,"byteOffset":36976,"target":34963},{"buffer":0,"byteLength":15312,"byteOffset":39712,"target":34962},{"buffer":0,"byteLength":22968,"byteOffset":55024,"target":34962},{"buffer":0,"byteLength":22968,"byteOffset":77992,"target":34962},{"buffer":0,"byteLength":15312,"byteOffset":100960,"target":34962},{"buffer":0,"byteLength":18216,"byteOffset":116272,"target":34963}],"samplers":[{"magFilter":9729,"minFilter":9987}],"buffers":[{"byteLength":134488,"uri":"FarmCrate_Apple.bin"}]}