{"asset":{"generator":"Khronos glTF Blender I/O v4.0.44","version":"2.0","copyright":"Quaternius / CC0-1.0; see ASSET-REGISTER.json"},"scene":0,"scenes":[{"name":"Scene","nodes":[0]}],"nodes":[{"mesh":0,"name":"Pot_1"}],"materials":[{"doubleSided":true,"name":"MI_Trim_Metal","normalTexture":{"index":0},"pbrMetallicRoughness":{"baseColorTexture":{"index":1},"metallicRoughnessTexture":{"index":2}},"occlusionTexture":{"index":2,"strength":0.65}}],"meshes":[{"name":"Cube.049","primitives":[{"attributes":{"POSITION":0,"NORMAL":1,"TEXCOORD_0":2},"indices":3,"material":0}]}],"textures":[{"sampler":0,"source":0},{"sampler":0,"source":1},{"sampler":0,"source":2}],"images":[{"mimeType":"image/png","name":"T_Trim_Metal_Normal","uri":"T_Trim_Metal_Normal.png"},{"mimeType":"image/png","name":"T_Trim_Metal_BaseColor","uri":"T_Trim_Metal_BaseColor.png"},{"mimeType":"image/png","name":"T_Trim_Metal_ORM","uri":"T_Trim_Metal_ORM.png"}],"accessors":[{"bufferView":0,"componentType":5126,"count":961,"max":[0.2696574032306671,0.2012079805135727,0.24300943315029144],"min":[-0.2696574032306671,-0.02260822057723999,-0.24300943315029144],"type":"VEC3"},{"bufferView":1,"componentType":5126,"count":961,"type":"VEC3"},{"bufferView":2,"componentType":5126,"count":961,"type":"VEC2"},{"bufferView":3,"componentType":5123,"count":3204,"type":"SCALAR"}],"bufferViews":[{"buffer":0,"byteLength":11532,"byteOffset":0,"target":34962},{"buffer":0,"byteLength":11532,"byteOffset":11532,"target":34962},{"buffer":0,"byteLength":7688,"byteOffset":23064,"target":34962},{"buffer":0,"byteLength":6408,"byteOffset":30752,"target":34963}],"samplers":[{"magFilter":9729,"minFilter":9987}],"buffers":[{"byteLength":37160,"uri":"Pot_1.bin"}]}