{"asset":{"generator":"Khronos glTF Blender I/O v4.0.44","version":"2.0","copyright":"Quaternius / CC0-1.0; see ASSET-REGISTER.json"},"scene":0,"scenes":[{"name":"Scene","nodes":[0]}],"nodes":[{"mesh":0,"name":"Whetstone"}],"materials":[{"doubleSided":true,"name":"MI_Trim_Furniture","normalTexture":{"index":0},"pbrMetallicRoughness":{"baseColorTexture":{"index":1},"metallicRoughnessTexture":{"index":2}},"occlusionTexture":{"index":2,"strength":0.65}},{"doubleSided":true,"name":"MI_Trim_Metal","normalTexture":{"index":3},"pbrMetallicRoughness":{"baseColorTexture":{"index":4},"metallicRoughnessTexture":{"index":5}},"occlusionTexture":{"index":5,"strength":0.65}},{"doubleSided":true,"name":"MI_Trim_Props_Vertex","normalTexture":{"index":6},"pbrMetallicRoughness":{"baseColorTexture":{"index":7},"metallicRoughnessTexture":{"index":8}},"occlusionTexture":{"index":8,"strength":0.65}}],"meshes":[{"name":"Cube.125","primitives":[{"attributes":{"COLOR_0":0,"POSITION":1,"NORMAL":2,"TEXCOORD_0":3},"indices":4,"material":0},{"attributes":{"COLOR_0":5,"POSITION":6,"NORMAL":7,"TEXCOORD_0":8},"indices":9,"material":1},{"attributes":{"COLOR_0":10,"POSITION":11,"NORMAL":12,"TEXCOORD_0":13},"indices":14,"material":2}]}],"textures":[{"sampler":0,"source":0},{"sampler":0,"source":1},{"sampler":0,"source":2},{"sampler":0,"source":3},{"sampler":0,"source":4},{"sampler":0,"source":5},{"sampler":0,"source":6},{"sampler":0,"source":7},{"sampler":0,"source":8}],"images":[{"mimeType":"image/png","name":"T_Trim_Furniture_Normal","uri":"T_Trim_Furniture_Normal.png"},{"mimeType":"image/png","name":"T_Trim_Furniture_BaseColor","uri":"T_Trim_Furniture_BaseColor.png"},{"mimeType":"image/png","name":"T_Trim_Furniture_ORM","uri":"T_Trim_Furniture_ORM.png"},{"mimeType":"image/png","name":"T_Trim_Metal_Normal","uri":"T_Trim_Metal_Normal.png"},{"mimeType":"image/png","name":"T_Trim_Metal_BaseColor","uri":"T_Trim_Metal_BaseColor.png"},{"mimeType":"image/png","name":"T_Trim_Metal_ORM","uri":"T_Trim_Metal_ORM.png"},{"mimeType":"image/png","name":"T_Trim_Props_Normal","uri":"T_Trim_Props_Normal.png"},{"mimeType":"image/png","name":"T_Trim_Props_BaseColor","uri":"T_Trim_Props_BaseColor.png"},{"mimeType":"image/png","name":"T_Trim_Props_ORM","uri":"T_Trim_Props_ORM.png"}],"accessors":[{"bufferView":0,"componentType":5123,"count":272,"normalized":true,"type":"VEC4"},{"bufferView":1,"componentType":5126,"count":272,"max":[0.5781391263008118,0.7973624467849731,0.37483900785446167],"min":[-0.5627491474151611,0.002910962328314781,-0.37483900785446167],"type":"VEC3"},{"bufferView":2,"componentType":5126,"count":272,"type":"VEC3"},{"bufferView":3,"componentType":5126,"count":272,"type":"VEC2"},{"bufferView":4,"componentType":5123,"count":432,"type":"SCALAR"},{"bufferView":5,"componentType":5123,"count":955,"normalized":true,"type":"VEC4"},{"bufferView":6,"componentType":5126,"count":955,"max":[0.4461928606033325,0.912340521812439,0.5269156694412231],"min":[-0.4461929202079773,0.17261816561222076,-0.3416018486022949],"type":"VEC3"},{"bufferView":7,"componentType":5126,"count":955,"type":"VEC3"},{"bufferView":8,"componentType":5126,"count":955,"type":"VEC2"},{"bufferView":9,"componentType":5123,"count":2616,"type":"SCALAR"},{"bufferView":10,"componentType":5123,"count":90,"normalized":true,"type":"VEC4"},{"bufferView":11,"componentType":5126,"count":90,"max":[0.3447129726409912,1.172794222831726,0.08529841899871826],"min":[-0.3447129726409912,0.4761374294757843,-0.08529841899871826],"type":"VEC3"},{"bufferView":12,"componentType":5126,"count":90,"type":"VEC3"},{"bufferView":13,"componentType":5126,"count":90,"type":"VEC2"},{"bufferView":14,"componentType":5123,"count":252,"type":"SCALAR"}],"bufferViews":[{"buffer":0,"byteLength":2176,"byteOffset":0,"target":34962},{"buffer":0,"byteLength":3264,"byteOffset":2176,"target":34962},{"buffer":0,"byteLength":3264,"byteOffset":5440,"target":34962},{"buffer":0,"byteLength":2176,"byteOffset":8704,"target":34962},{"buffer":0,"byteLength":864,"byteOffset":10880,"target":34963},{"buffer":0,"byteLength":7640,"byteOffset":11744,"target":34962},{"buffer":0,"byteLength":11460,"byteOffset":19384,"target":34962},{"buffer":0,"byteLength":11460,"byteOffset":30844,"target":34962},{"buffer":0,"byteLength":7640,"byteOffset":42304,"target":34962},{"buffer":0,"byteLength":5232,"byteOffset":49944,"target":34963},{"buffer":0,"byteLength":720,"byteOffset":55176,"target":34962},{"buffer":0,"byteLength":1080,"byteOffset":55896,"target":34962},{"buffer":0,"byteLength":1080,"byteOffset":56976,"target":34962},{"buffer":0,"byteLength":720,"byteOffset":58056,"target":34962},{"buffer":0,"byteLength":504,"byteOffset":58776,"target":34963}],"samplers":[{"magFilter":9729,"minFilter":9987}],"buffers":[{"byteLength":59280,"uri":"Whetstone.bin"}]}