{"asset":{"generator":"Khronos glTF Blender I/O v4.0.44","version":"2.0","copyright":"Quaternius / CC0-1.0; see ASSET-REGISTER.json"},"scene":0,"scenes":[{"name":"Scene","nodes":[0]}],"nodes":[{"mesh":0,"name":"Balcony_Cross_Straight"}],"materials":[{"doubleSided":true,"name":"MI_WoodTrim","normalTexture":{"index":0},"pbrMetallicRoughness":{"baseColorTexture":{"index":1},"metallicFactor":0,"metallicRoughnessTexture":{"index":2}}}],"meshes":[{"name":"Cube.111","primitives":[{"attributes":{"POSITION":0,"NORMAL":1,"TEXCOORD_0":2},"indices":3,"material":0}]}],"textures":[{"sampler":0,"source":0},{"sampler":0,"source":1},{"sampler":0,"source":2}],"images":[{"mimeType":"image/png","name":"T_WoodTrim_Normal","uri":"T_WoodTrim_Normal.png"},{"mimeType":"image/png","name":"T_WoodTrim_BaseColor","uri":"T_WoodTrim_BaseColor.png"},{"mimeType":"image/png","name":"T_WoodTrim_Roughness","uri":"T_WoodTrim_Roughness.png"}],"accessors":[{"bufferView":0,"componentType":5126,"count":252,"max":[1.0000003576278687,1.1247994899749756,1.1042530536651611],"min":[-1.0000003576278687,-0.10508717596530914,0.8979700207710266],"type":"VEC3"},{"bufferView":1,"componentType":5126,"count":252,"type":"VEC3"},{"bufferView":2,"componentType":5126,"count":252,"type":"VEC2"},{"bufferView":3,"componentType":5123,"count":396,"type":"SCALAR"}],"bufferViews":[{"buffer":0,"byteLength":3024,"byteOffset":0,"target":34962},{"buffer":0,"byteLength":3024,"byteOffset":3024,"target":34962},{"buffer":0,"byteLength":2016,"byteOffset":6048,"target":34962},{"buffer":0,"byteLength":792,"byteOffset":8064,"target":34963}],"samplers":[{"magFilter":9729,"minFilter":9987}],"buffers":[{"byteLength":8856,"uri":"Balcony_Cross_Straight.bin"}]}