{"asset":{"generator":"Khronos glTF Blender I/O v4.0.44","version":"2.0","copyright":"Quaternius / CC0-1.0; see ASSET-REGISTER.json"},"scene":0,"scenes":[{"name":"Scene","nodes":[0]}],"nodes":[{"mesh":0,"name":"Roof_Front_Brick6"}],"materials":[{"doubleSided":true,"name":"MI_WoodTrim","normalTexture":{"index":0},"pbrMetallicRoughness":{"baseColorTexture":{"index":1},"metallicFactor":0,"metallicRoughnessTexture":{"index":2}}},{"doubleSided":true,"name":"MI_Plaster","normalTexture":{"index":3},"pbrMetallicRoughness":{"baseColorTexture":{"index":4},"metallicRoughnessTexture":{"index":5}},"occlusionTexture":{"index":5,"strength":0.65}}],"meshes":[{"name":"Cube.101","primitives":[{"attributes":{"POSITION":0,"NORMAL":1,"TEXCOORD_0":2},"indices":3,"material":0},{"attributes":{"POSITION":4,"NORMAL":5,"TEXCOORD_0":6},"indices":7,"material":1}]}],"textures":[{"sampler":0,"source":0},{"sampler":0,"source":1},{"sampler":0,"source":2},{"sampler":0,"source":3},{"sampler":0,"source":4},{"sampler":0,"source":5}],"images":[{"mimeType":"image/png","name":"T_WoodTrim_Normal","uri":"T_WoodTrim_Normal.png"},{"mimeType":"image/png","name":"T_WoodTrim_BaseColor","uri":"T_WoodTrim_BaseColor.png"},{"mimeType":"image/png","name":"T_WoodTrim_Roughness","uri":"T_WoodTrim_Roughness.png"},{"mimeType":"image/png","name":"T_Plaster_Normal","uri":"T_Plaster_Normal.png"},{"mimeType":"image/png","name":"T_Plaster_BaseColor","uri":"T_Plaster_BaseColor.png"},{"mimeType":"image/png","name":"T_Plaster_ORM","uri":"T_Plaster_ORM.png"}],"accessors":[{"bufferView":0,"componentType":5126,"count":504,"max":[3.347877264022827,4.383981704711914,0.7941403388977051],"min":[-3.346518039703369,-0.13180209696292877,-0.33496367931365967],"type":"VEC3"},{"bufferView":1,"componentType":5126,"count":504,"type":"VEC3"},{"bufferView":2,"componentType":5126,"count":504,"type":"VEC2"},{"bufferView":3,"componentType":5123,"count":936,"type":"SCALAR"},{"bufferView":4,"componentType":5126,"count":20,"max":[3.1225504875183105,4.377229690551758,1.375610736431554e-11],"min":[-3.1225504875183105,0.019167041406035423,-0.24970144033432007],"type":"VEC3"},{"bufferView":5,"componentType":5126,"count":20,"type":"VEC3"},{"bufferView":6,"componentType":5126,"count":20,"type":"VEC2"},{"bufferView":7,"componentType":5123,"count":48,"type":"SCALAR"}],"bufferViews":[{"buffer":0,"byteLength":6048,"byteOffset":0,"target":34962},{"buffer":0,"byteLength":6048,"byteOffset":6048,"target":34962},{"buffer":0,"byteLength":4032,"byteOffset":12096,"target":34962},{"buffer":0,"byteLength":1872,"byteOffset":16128,"target":34963},{"buffer":0,"byteLength":240,"byteOffset":18000,"target":34962},{"buffer":0,"byteLength":240,"byteOffset":18240,"target":34962},{"buffer":0,"byteLength":160,"byteOffset":18480,"target":34962},{"buffer":0,"byteLength":96,"byteOffset":18640,"target":34963}],"samplers":[{"magFilter":9729,"minFilter":9987}],"buffers":[{"byteLength":18736,"uri":"Roof_Front_Brick6.bin"}]}