<svg xmlns="http://www.w3.org/2000/svg" viewBox="0 0 640 320"><defs><linearGradient id="sky" x2="0" y2="1"><stop stop-color="#75a6b9"/><stop offset="1" stop-color="#e8dec2"/></linearGradient><linearGradient id="stone" x2="1" y2="1"><stop stop-color="#faf0cf"/><stop offset="1" stop-color="#bcbea7"/></linearGradient></defs><rect width="640" height="320" fill="url(#sky)"/><circle cx="505" cy="64" r="35" fill="#f9e6b5"/><g fill="#edf4e9" opacity=".6"><ellipse cx="73" cy="222" rx="100" ry="33"/><ellipse cx="270" cy="272" rx="126" ry="28"/><ellipse cx="575" cy="213" rx="96" ry="31"/></g><g fill="#8cafae"><path d="m69 190 86 12-26 67-24-31-21 17Z"/><path d="m330 143 181 9-28 64-40 9-31 34-26-62-30 8Z"/><path d="m217 248 72 4-24 39-18-15Z"/></g><g fill="#567e86"><path d="m79 198 52 6-20 42Z"/><path d="m391 167 84-9-31 67Z"/></g><path d="M54 192h112v12H54zm264-50h205v14H318zm-112 99h96v13h-96z" fill="#d7b277"/><g fill="url(#stone)"><path d="M84 133h53v59H84zm253-55h41v65h-41zm56-40h66v105h-66zm78 69h36v36h-36zM227 204h36v38h-36"/></g><g fill="#497d87"><path d="m78 133 32-25 32 25zm253-55 27-27 27 27zm54-40 41-31 41 31zm79 69 27-21 24 21zm-244 97 26-22 25 22z"/></g><g fill="#7fb4b7"><path d="M92 146h10v14H92zm23 0h10v14h-10zM401 52h12v15h-12zm25 0h12v15h-12zm-25 27h12v15h-12zm25 0h12v15h-12zm-25 27h12v15h-12zm25 0h12v15h-12zM346 91h11v15h-11zm0 23h11v15h-11"/></g><g fill="none" stroke-linecap="round"><path d="M103 178C32 130 195 18 297 91S244 246 384 210s206-204 75-124" stroke="#43616b" stroke-width="8"/><path d="M103 176C32 128 195 16 297 89S244 244 384 208s206-204 75-124" stroke="#f7d59c" stroke-width="3"/><path d="M103 179C32 131 195 19 297 92S244 247 384 211s206-204 75-124" stroke="#a2e5d0" stroke-width="1.5"/></g><g transform="translate(239 148) rotate(17)"><path d="M0-11v18" stroke="#31535f" stroke-width="4"/><circle cy="16" r="5" fill="#334f59"/><path d="m0 21-4 12 8 1 2-12" fill="#ab7953"/><path d="m-3 33-4 10m9-9 5 9" stroke="#355260" stroke-width="3"/></g><g transform="translate(100 51)"><ellipse rx="40" ry="12" fill="#e7e7cc"/><path d="m-12 12h26v9h-26" fill="#52858a"/><path d="m30-8 14-8v16" fill="#bc8b57"/></g></svg>
