{"asset":{"version":"2.0","generator":"SVGN CC0 street-art curation 1"},"scene":0,"scenes":[{"nodes":[1,3,5,7,9,11,13,15,17,19,21,23,25,27,29,31,33,35,37,39,41,43,45,47,49,51,53]}],"nodes":[{"mesh":0,"name":"Brick_Window_Trim"},{"name":"asset_Brick_Window_Trim","children":[0]},{"mesh":1,"name":"Brick_Window_CurvedDouble"},{"name":"asset_Brick_Window_CurvedDouble","children":[2]},{"mesh":2,"name":"Brick_Plain_3"},{"name":"asset_Brick_Plain_3","children":[4]},{"mesh":3,"name":"Brick_Plain_1"},{"name":"asset_Brick_Plain_1","children":[6]},{"mesh":4,"name":"Brick_BottomTrim"},{"name":"asset_Brick_BottomTrim","children":[8]},{"mesh":5,"name":"Cornice_Brick_Center"},{"name":"asset_Cornice_Brick_Center","children":[10]},{"mesh":6,"name":"Cornice_Metal_Center"},{"name":"asset_Cornice_Metal_Center","children":[12]},{"mesh":7,"name":"Metal_FirstFloor_Window"},{"name":"asset_Metal_FirstFloor_Window","children":[14]},{"mesh":8,"name":"DoorFrame_Wooden"},{"name":"asset_DoorFrame_Wooden","children":[16]},{"mesh":9,"name":"Door_1"},{"name":"asset_Door_1","children":[18]},{"mesh":10,"name":"Roof_Slate_Window_1"},{"name":"asset_Roof_Slate_Window_1","children":[20]},{"mesh":11,"name":"Roof_Slate_Corner"},{"name":"asset_Roof_Slate_Corner","children":[22]},{"mesh":12,"name":"Roof_Slate_Center"},{"name":"asset_Roof_Slate_Center","children":[24]},{"mesh":13,"name":"Roof_4x4"},{"name":"asset_Roof_4x4","children":[26]},{"mesh":14,"name":"Prop_Planter_Single"},{"name":"asset_Prop_Planter_Single","children":[28]},{"mesh":15,"name":"Prop_Drain"},{"name":"asset_Prop_Drain","children":[30]},{"mesh":16,"name":"Prop_ManholeCover"},{"name":"asset_Prop_ManholeCover","children":[32]},{"mesh":17,"name":"Stairs_Rails_Metal_Straight_1"},{"name":"asset_Stairs_Rails_Metal_Straight_1","children":[34]},{"mesh":18,"name":"CommonTree_1"},{"name":"asset_CommonTree_1","children":[36]},{"mesh":19,"name":"CommonTree_3"},{"name":"asset_CommonTree_3","children":[38]},{"mesh":20,"name":"CommonTree_4"},{"name":"asset_CommonTree_4","children":[40]},{"mesh":21,"name":"Bush_Common"},{"name":"asset_Bush_Common","children":[42]},{"mesh":22,"name":"Bush_Common_Flowers"},{"name":"asset_Bush_Common_Flowers","children":[44]},{"mesh":23,"name":"Flower_3_Group"},{"name":"asset_Flower_3_Group","children":[46]},{"mesh":24,"name":"Flower_4_Group"},{"name":"asset_Flower_4_Group","children":[48]},{"mesh":25,"name":"Grass_Common_Short"},{"name":"asset_Grass_Common_Short","children":[50]},{"mesh":26,"name":"Fern_1"},{"name":"asset_Fern_1","children":[52]}],"meshes":[{"name":"Cube.10030","primitives":[{"attributes":{"POSITION":0,"NORMAL":1,"TEXCOORD_0":2,"TEXCOORD_1":3,"TEXCOORD_2":4,"COLOR_0":5,"COLOR_1":6},"indices":7,"material":0},{"attributes":{"POSITION":8,"NORMAL":9,"TEXCOORD_0":10,"TEXCOORD_1":11,"TEXCOORD_2":12,"COLOR_0":13,"COLOR_1":14},"indices":15,"material":1},{"attributes":{"POSITION":16,"NORMAL":17,"TEXCOORD_0":18,"TEXCOORD_1":19,"TEXCOORD_2":20,"COLOR_0":21,"COLOR_1":22},"indices":23,"material":2},{"attributes":{"POSITION":24,"NORMAL":25,"TEXCOORD_0":26,"TEXCOORD_1":27,"TEXCOORD_2":28,"COLOR_0":29,"COLOR_1":30},"indices":31,"material":3},{"attributes":{"POSITION":32,"NORMAL":33,"TEXCOORD_0":34,"TEXCOORD_1":35,"TEXCOORD_2":36,"COLOR_0":37,"COLOR_1":38},"indices":39,"material":4}]},{"name":"Cube.240","primitives":[{"attributes":{"POSITION":40,"NORMAL":41,"TEXCOORD_0":42,"TEXCOORD_1":43,"COLOR_0":44},"indices":45,"material":5},{"attributes":{"POSITION":46,"NORMAL":47,"TEXCOORD_0":48,"TEXCOORD_1":49,"COLOR_0":50},"indices":51,"material":4},{"attributes":{"POSITION":52,"NORMAL":53,"TEXCOORD_0":54,"TEXCOORD_1":55,"COLOR_0":56},"indices":57,"material":6},{"attributes":{"POSITION":58,"NORMAL":59,"TEXCOORD_0":60,"TEXCOORD_1":61,"COLOR_0":62},"indices":63,"material":2},{"attributes":{"POSITION":64,"NORMAL":65,"TEXCOORD_0":66,"TEXCOORD_1":67,"COLOR_0":68},"indices":69,"material":3}]},{"name":"Cube.030","primitives":[{"attributes":{"POSITION":70,"NORMAL":71,"TEXCOORD_0":72,"TEXCOORD_1":73,"COLOR_0":74},"indices":75,"material":0},{"attributes":{"POSITION":76,"NORMAL":77,"TEXCOORD_0":78,"TEXCOORD_1":79,"COLOR_0":80},"indices":81,"material":4}]},{"name":"Cube.091","primitives":[{"attributes":{"POSITION":82,"NORMAL":83,"TEXCOORD_0":84,"TEXCOORD_1":85,"COLOR_0":86,"COLOR_1":87},"indices":88,"material":0},{"attributes":{"POSITION":89,"NORMAL":90,"TEXCOORD_0":91,"TEXCOORD_1":92,"COLOR_0":93,"COLOR_1":94},"indices":95,"material":4}]},{"name":"Cube.037","primitives":[{"attributes":{"POSITION":96,"NORMAL":97,"TEXCOORD_0":98,"TEXCOORD_1":99,"COLOR_0":100,"COLOR_1":101},"indices":102,"material":0},{"attributes":{"POSITION":103,"NORMAL":104,"TEXCOORD_0":105,"TEXCOORD_1":106,"COLOR_0":107,"COLOR_1":108},"indices":109,"material":1},{"attributes":{"POSITION":110,"NORMAL":111,"TEXCOORD_0":112,"TEXCOORD_1":113,"COLOR_0":114,"COLOR_1":115},"indices":116,"material":4}]},{"name":"Cube.225","primitives":[{"attributes":{"POSITION":117,"NORMAL":118,"TEXCOORD_0":119,"TEXCOORD_1":120,"COLOR_0":121,"COLOR_1":122},"indices":123,"material":0}]},{"name":"Cube.121","primitives":[{"attributes":{"POSITION":124,"NORMAL":125,"TEXCOORD_0":126,"TEXCOORD_1":127,"COLOR_0":128},"indices":129,"material":6}]},{"name":"Cube.007","primitives":[{"attributes":{"POSITION":130,"NORMAL":131,"TEXCOORD_0":132,"TEXCOORD_1":133,"COLOR_0":134},"indices":135,"material":7},{"attributes":{"POSITION":136,"NORMAL":137,"TEXCOORD_0":138,"TEXCOORD_1":139,"COLOR_0":140},"indices":141,"material":6},{"attributes":{"POSITION":142,"NORMAL":143,"TEXCOORD_0":144,"TEXCOORD_1":145,"COLOR_0":146},"indices":147,"material":2},{"attributes":{"POSITION":148,"NORMAL":149,"TEXCOORD_0":150,"TEXCOORD_1":151,"COLOR_0":152},"indices":153,"material":3},{"attributes":{"POSITION":154,"NORMAL":155,"TEXCOORD_0":156,"TEXCOORD_1":157,"COLOR_0":158},"indices":159,"material":4}]},{"name":"Cube.203","primitives":[{"attributes":{"POSITION":160,"NORMAL":161,"TEXCOORD_0":162,"TEXCOORD_1":163},"indices":164,"material":1},{"attributes":{"POSITION":165,"NORMAL":166,"TEXCOORD_0":167,"TEXCOORD_1":168},"indices":169,"material":2}]},{"name":"Cube.184","primitives":[{"attributes":{"POSITION":170,"NORMAL":171,"TEXCOORD_0":172,"TEXCOORD_1":173},"indices":174,"material":6}]},{"name":"Plane.050","primitives":[{"attributes":{"POSITION":175,"NORMAL":176,"TEXCOORD_0":177,"TEXCOORD_1":178},"indices":179,"material":8},{"attributes":{"POSITION":180,"NORMAL":181,"TEXCOORD_0":182,"TEXCOORD_1":183},"indices":184,"material":1},{"attributes":{"POSITION":185,"NORMAL":186,"TEXCOORD_0":187,"TEXCOORD_1":188},"indices":189,"material":2},{"attributes":{"POSITION":190,"NORMAL":191,"TEXCOORD_0":192,"TEXCOORD_1":193},"indices":194,"material":3},{"attributes":{"POSITION":195,"NORMAL":196,"TEXCOORD_0":197,"TEXCOORD_1":198},"indices":199,"material":6}]},{"name":"Plane.041","primitives":[{"attributes":{"POSITION":200,"NORMAL":201,"TEXCOORD_0":202,"TEXCOORD_1":203},"indices":204,"material":8}]},{"name":"Plane.070","primitives":[{"attributes":{"POSITION":205,"NORMAL":206,"TEXCOORD_0":207,"TEXCOORD_1":208},"indices":209,"material":8},{"attributes":{"POSITION":210,"NORMAL":211,"TEXCOORD_0":212,"TEXCOORD_1":213},"indices":214,"material":6}]},{"name":"Plane.075","primitives":[{"attributes":{"POSITION":215,"NORMAL":216,"TEXCOORD_0":217},"indices":218,"material":9}]},{"name":"Cube.016","primitives":[{"attributes":{"POSITION":219,"NORMAL":220,"TEXCOORD_0":221,"TEXCOORD_1":222},"indices":223,"material":6},{"attributes":{"POSITION":224,"NORMAL":225,"TEXCOORD_0":226,"TEXCOORD_1":227},"indices":228,"material":10}]},{"name":"Cube.173","primitives":[{"attributes":{"POSITION":229,"NORMAL":230,"TEXCOORD_0":231},"indices":232,"material":11}]},{"name":"Cylinder.006","primitives":[{"attributes":{"POSITION":233,"NORMAL":234,"TEXCOORD_0":235},"indices":236,"material":11}]},{"name":"Cube.220","primitives":[{"attributes":{"POSITION":237,"NORMAL":238,"TEXCOORD_0":239,"TEXCOORD_1":240},"indices":241,"material":6}]},{"name":"tree.023","primitives":[{"attributes":{"COLOR_0":242,"POSITION":243,"NORMAL":244,"TEXCOORD_0":245},"indices":246,"material":12},{"attributes":{"COLOR_0":247,"POSITION":248,"NORMAL":249,"TEXCOORD_0":250},"indices":251,"material":13}]},{"name":"tree.025","primitives":[{"attributes":{"COLOR_0":252,"POSITION":253,"NORMAL":254,"TEXCOORD_0":255},"indices":256,"material":12},{"attributes":{"COLOR_0":257,"POSITION":258,"NORMAL":259,"TEXCOORD_0":260},"indices":261,"material":13}]},{"name":"tree.026","primitives":[{"attributes":{"COLOR_0":262,"POSITION":263,"NORMAL":264,"TEXCOORD_0":265},"indices":266,"material":12},{"attributes":{"COLOR_0":267,"POSITION":268,"NORMAL":269,"TEXCOORD_0":270},"indices":271,"material":13}]},{"name":"tree.008","primitives":[{"attributes":{"COLOR_0":272,"POSITION":273,"NORMAL":274,"TEXCOORD_0":275},"indices":276,"material":14}]},{"name":"tree.009","primitives":[{"attributes":{"COLOR_0":277,"POSITION":278,"NORMAL":279,"TEXCOORD_0":280},"indices":281,"material":13},{"attributes":{"COLOR_0":282,"POSITION":283,"NORMAL":284,"TEXCOORD_0":285},"indices":286,"material":15}]},{"name":"Plane.021","primitives":[{"attributes":{"COLOR_0":287,"POSITION":288,"NORMAL":289,"TEXCOORD_0":290},"indices":291,"material":16},{"attributes":{"COLOR_0":292,"POSITION":293,"NORMAL":294,"TEXCOORD_0":295},"indices":296,"material":15}]},{"name":"Plane.003","primitives":[{"attributes":{"COLOR_0":297,"POSITION":298,"NORMAL":299,"TEXCOORD_0":300},"indices":301,"material":16},{"attributes":{"COLOR_0":302,"POSITION":303,"NORMAL":304,"TEXCOORD_0":305},"indices":306,"material":15}]},{"name":"Plane.014","primitives":[{"attributes":{"COLOR_0":307,"POSITION":308,"NORMAL":309,"TEXCOORD_0":310},"indices":311,"material":17}]},{"name":"Plane.023","primitives":[{"attributes":{"COLOR_0":312,"POSITION":313,"NORMAL":314,"TEXCOORD_0":315},"indices":316,"material":16}]}],"materials":[{"doubleSided":true,"name":"MI_RedBrick","normalTexture":{"index":0},"pbrMetallicRoughness":{"baseColorTexture":{"index":1},"metallicRoughnessTexture":{"index":2}}},{"doubleSided":true,"name":"MI_Trim","normalTexture":{"index":3},"pbrMetallicRoughness":{"baseColorTexture":{"index":4},"metallicRoughnessTexture":{"index":5}}},{"doubleSided":true,"name":"MI_Glass","pbrMetallicRoughness":{"baseColorFactor":[0.1,0.2,0.22,1],"metallicFactor":0.35,"roughnessFactor":0.22}},{"doubleSided":true,"name":"MI_FakeInterior","pbrMetallicRoughness":{"baseColorFactor":[0.3,0.21,0.12,1],"metallicFactor":0,"roughnessFactor":0.5},"emissiveFactor":[0.08,0.045,0.015]},{"doubleSided":true,"name":"MI_InteriorWall","normalTexture":{"index":0},"pbrMetallicRoughness":{"baseColorTexture":{"index":1},"metallicRoughnessTexture":{"index":2}}},{"doubleSided":true,"name":"MI_RedBrick_Pale","normalTexture":{"index":0},"pbrMetallicRoughness":{"baseColorTexture":{"index":1},"metallicRoughnessTexture":{"index":2}}},{"doubleSided":true,"name":"MI_Trim_MetalConcrete","normalTexture":{"index":6},"pbrMetallicRoughness":{"baseColorTexture":{"index":7},"metallicRoughnessTexture":{"index":8}}},{"doubleSided":true,"name":"MI_Trim_Dark","normalTexture":{"index":3},"pbrMetallicRoughness":{"baseColorTexture":{"index":4},"metallicRoughnessTexture":{"index":5}}},{"doubleSided":true,"name":"MI_Roof_Slate","normalTexture":{"index":9},"pbrMetallicRoughness":{"baseColorTexture":{"index":10},"metallicRoughnessTexture":{"index":11}}},{"doubleSided":true,"name":"MI_Asphalt","normalTexture":{"index":12},"pbrMetallicRoughness":{"baseColorTexture":{"index":13},"metallicRoughnessTexture":{"index":14}}},{"doubleSided":true,"name":"MI_Dirt","normalTexture":{"index":15},"pbrMetallicRoughness":{"baseColorTexture":{"index":16},"metallicRoughnessTexture":{"index":17}}},{"doubleSided":true,"name":"MI_Ornaments","normalTexture":{"index":18},"pbrMetallicRoughness":{"baseColorTexture":{"index":19},"metallicRoughnessTexture":{"index":20}}},{"doubleSided":true,"name":"Bark_NormalTree","normalTexture":{"index":21},"pbrMetallicRoughness":{"baseColorTexture":{"index":22},"metallicFactor":0}},{"alphaCutoff":0.20000000298023224,"alphaMode":"MASK","doubleSided":true,"name":"Leaves_NormalTree","pbrMetallicRoughness":{"baseColorTexture":{"index":23},"metallicFactor":0}},{"alphaCutoff":0.20000000298023224,"alphaMode":"MASK","doubleSided":true,"name":"Leaves_TwistedTree","pbrMetallicRoughness":{"baseColorTexture":{"index":24},"metallicFactor":0}},{"alphaCutoff":0.20000000298023224,"alphaMode":"MASK","doubleSided":true,"name":"Flowers","pbrMetallicRoughness":{"baseColorTexture":{"index":25},"metallicFactor":0}},{"alphaCutoff":0.20000000298023224,"alphaMode":"MASK","doubleSided":true,"name":"Leaves","pbrMetallicRoughness":{"baseColorTexture":{"index":26},"metallicFactor":0}},{"doubleSided":true,"name":"Grass","pbrMetallicRoughness":{"baseColorTexture":{"index":27},"metallicFactor":0}}],"textures":[{"source":0,"sampler":0},{"source":1,"sampler":0},{"source":2,"sampler":0},{"source":3,"sampler":0},{"source":4,"sampler":0},{"source":5,"sampler":0},{"source":6,"sampler":0},{"source":7,"sampler":0},{"source":8,"sampler":0},{"source":9,"sampler":0},{"source":10,"sampler":0},{"source":11,"sampler":0},{"source":12,"sampler":0},{"source":13,"sampler":0},{"source":14,"sampler":0},{"source":15,"sampler":0},{"source":16,"sampler":0},{"source":17,"sampler":0},{"source":18,"sampler":0},{"source":19,"sampler":0},{"source":20,"sampler":0},{"source":21,"sampler":0},{"source":22,"sampler":0},{"source":23,"sampler":0},{"source":24,"sampler":0},{"source":25,"sampler":0},{"source":26,"sampler":0},{"source":27,"sampler":0}],"images":[{"uri":"textures/T_RedBrick_Normal-147f14d7.jpg","name":"T_RedBrick_Normal","mimeType":"image/jpeg"},{"uri":"textures/T_RedBrick_BaseColor-ea85bfc0.jpg","name":"T_RedBrick_BaseColor","mimeType":"image/jpeg"},{"uri":"textures/T_RedBrick_ORM-dfba8a1d.jpg","name":"T_RedBrick_ORM","mimeType":"image/jpeg"},{"uri":"textures/T_Trim_Normal-95fa4309.jpg","name":"T_Trim_Normal","mimeType":"image/jpeg"},{"uri":"textures/T_Trim_BaseColor-c3334902.jpg","name":"T_Trim_BaseColor","mimeType":"image/jpeg"},{"uri":"textures/T_Trim_ORM-52449f20.jpg","name":"T_Trim_ORM","mimeType":"image/jpeg"},{"uri":"textures/T_MetalConcrete_Normal-93f95a96.jpg","name":"T_MetalConcrete_Normal","mimeType":"image/jpeg"},{"uri":"textures/T_MetalConcrete_BaseColor-adae6563.jpg","name":"T_MetalConcrete_BaseColor","mimeType":"image/jpeg"},{"uri":"textures/T_MetalConcrete_ORM-c4d35f68.jpg","name":"T_MetalConcrete_ORM","mimeType":"image/jpeg"},{"uri":"textures/T_RoofSlate_Normal-cd5cb711.jpg","name":"T_RoofSlate_Normal","mimeType":"image/jpeg"},{"uri":"textures/T_RoofSlate_BaseColor-2057fecd.jpg","name":"T_RoofSlate_BaseColor","mimeType":"image/jpeg"},{"uri":"textures/T_RoofSlate_ORM-7e8bafdd.jpg","name":"T_RoofSlate_ORM","mimeType":"image/jpeg"},{"uri":"textures/T_Concrete_Normal-e4de917d.jpg","name":"T_Concrete_Normal","mimeType":"image/jpeg"},{"uri":"textures/T_Concrete_Asphalt_BaseColor-a37ca932.jpg","name":"T_Concrete_Asphalt_BaseColor","mimeType":"image/jpeg"},{"uri":"textures/T_Concrete_ORM-be17636c.jpg","name":"T_Concrete_ORM","mimeType":"image/jpeg"},{"uri":"textures/T_Dirt_Normal-88958149.jpg","name":"T_Dirt_Normal","mimeType":"image/jpeg"},{"uri":"textures/T_Dirt_BaseColor-bcb7b1d7.jpg","name":"T_Dirt_BaseColor","mimeType":"image/jpeg"},{"uri":"textures/T_Dirt_ORM-a2803d1c.jpg","name":"T_Dirt_ORM","mimeType":"image/jpeg"},{"uri":"textures/T_Ornaments_Normal-c1aa6b30.jpg","name":"T_Ornaments_Normal","mimeType":"image/jpeg"},{"uri":"textures/T_Ornaments_BaseColor-528cbe67.jpg","name":"T_Ornaments_BaseColor","mimeType":"image/jpeg"},{"uri":"textures/T_Ornaments_ORM-c65b673f.jpg","name":"T_Ornaments_ORM","mimeType":"image/jpeg"},{"uri":"textures/Bark_NormalTree_Normal-852f6155.jpg","name":"Bark_NormalTree_Normal","mimeType":"image/jpeg"},{"uri":"textures/Bark_NormalTree-f36e94fd.jpg","name":"Bark_NormalTree","mimeType":"image/jpeg"},{"uri":"textures/Leaves_NormalTree_C-998612bd.png","name":"Leaves_NormalTree_C","mimeType":"image/png"},{"uri":"textures/Leaves_TwistedTree_C-0e459b56.png","name":"Leaves_TwistedTree_C","mimeType":"image/png"},{"uri":"textures/Flowers-5c531f23.png","name":"Flowers","mimeType":"image/png"},{"uri":"textures/Leaves-23248ceb.png","name":"Leaves","mimeType":"image/png"},{"uri":"textures/Grass-5d690481.jpg","name":"Grass","mimeType":"image/jpeg"}],"samplers":[{"magFilter":9729,"minFilter":9987,"wrapS":10497,"wrapT":10497}],"accessors":[{"bufferView":0,"componentType":5126,"count":68,"max":[1,3,1.3113415775478643e-07],"min":[-1,0,-0.15878570079803467],"type":"VEC3"},{"bufferView":1,"componentType":5126,"count":68,"type":"VEC3"},{"bufferView":2,"componentType":5126,"count":68,"type":"VEC2"},{"bufferView":3,"componentType":5126,"count":68,"type":"VEC2"},{"bufferView":4,"componentType":5126,"count":68,"type":"VEC2"},{"bufferView":5,"componentType":5121,"count":68,"normalized":true,"type":"VEC4"},{"bufferView":6,"componentType":5123,"count":68,"normalized":true,"type":"VEC4"},{"bufferView":7,"componentType":5123,"count":144,"type":"SCALAR"},{"bufferView":8,"componentType":5126,"count":882,"max":[0.7214806079864502,2.982818603515625,0.04713759571313858],"min":[-0.7214806079864502,0,-0.2568173408508301],"type":"VEC3"},{"bufferView":9,"componentType":5126,"count":882,"type":"VEC3"},{"bufferView":10,"componentType":5126,"count":882,"type":"VEC2"},{"bufferView":11,"componentType":5126,"count":882,"type":"VEC2"},{"bufferView":12,"componentType":5126,"count":882,"type":"VEC2"},{"bufferView":13,"componentType":5121,"count":882,"normalized":true,"type":"VEC4"},{"bufferView":14,"componentType":5123,"count":882,"normalized":true,"type":"VEC4"},{"bufferView":15,"componentType":5123,"count":1686,"type":"SCALAR"},{"bufferView":16,"componentType":5126,"count":48,"max":[0.4960244297981262,2.324681282043457,-0.1999606192111969],"min":[-0.49756920337677,0.31414884328842163,-0.1999606192111969],"type":"VEC3"},{"bufferView":17,"componentType":5126,"count":48,"type":"VEC3"},{"bufferView":18,"componentType":5126,"count":48,"type":"VEC2"},{"bufferView":19,"componentType":5126,"count":48,"type":"VEC2"},{"bufferView":20,"componentType":5126,"count":48,"type":"VEC2"},{"bufferView":21,"componentType":5121,"count":48,"normalized":true,"type":"VEC4"},{"bufferView":22,"componentType":5123,"count":48,"normalized":true,"type":"VEC4"},{"bufferView":23,"componentType":5123,"count":72,"type":"SCALAR"},{"bufferView":24,"componentType":5126,"count":4,"max":[0.9182416200637817,2.8756752014160156,-0.19344349205493927],"min":[-0.9182416200637817,0.09556138515472412,-0.19344349205493927],"type":"VEC3"},{"bufferView":25,"componentType":5126,"count":4,"type":"VEC3"},{"bufferView":26,"componentType":5126,"count":4,"type":"VEC2"},{"bufferView":27,"componentType":5126,"count":4,"type":"VEC2"},{"bufferView":28,"componentType":5126,"count":4,"type":"VEC2"},{"bufferView":29,"componentType":5121,"count":4,"normalized":true,"type":"VEC4"},{"bufferView":30,"componentType":5123,"count":4,"normalized":true,"type":"VEC4"},{"bufferView":31,"componentType":5123,"count":6,"type":"SCALAR"},{"bufferView":32,"componentType":5126,"count":20,"max":[1,3.000000476837158,-0.2000000774860382],"min":[-1,0,-0.2000000923871994],"type":"VEC3"},{"bufferView":33,"componentType":5126,"count":20,"type":"VEC3"},{"bufferView":34,"componentType":5126,"count":20,"type":"VEC2"},{"bufferView":35,"componentType":5126,"count":20,"type":"VEC2"},{"bufferView":36,"componentType":5126,"count":20,"type":"VEC2"},{"bufferView":37,"componentType":5121,"count":20,"normalized":true,"type":"VEC4"},{"bufferView":38,"componentType":5123,"count":20,"normalized":true,"type":"VEC4"},{"bufferView":39,"componentType":5123,"count":48,"type":"SCALAR"},{"bufferView":40,"componentType":5126,"count":126,"max":[2,3,1.3113415775478643e-07],"min":[-2,0,-0.16487307846546173],"type":"VEC3"},{"bufferView":41,"componentType":5126,"count":126,"type":"VEC3"},{"bufferView":42,"componentType":5126,"count":126,"type":"VEC2"},{"bufferView":43,"componentType":5126,"count":126,"type":"VEC2"},{"bufferView":44,"componentType":5123,"count":126,"normalized":true,"type":"VEC4"},{"bufferView":45,"componentType":5123,"count":288,"type":"SCALAR"},{"bufferView":46,"componentType":5126,"count":28,"max":[2,3.000000476837158,-0.2000000774860382],"min":[-2,0,-0.2000000923871994],"type":"VEC3"},{"bufferView":47,"componentType":5126,"count":28,"type":"VEC3"},{"bufferView":48,"componentType":5126,"count":28,"type":"VEC2"},{"bufferView":49,"componentType":5126,"count":28,"type":"VEC2"},{"bufferView":50,"componentType":5123,"count":28,"normalized":true,"type":"VEC4"},{"bufferView":51,"componentType":5123,"count":60,"type":"SCALAR"},{"bufferView":52,"componentType":5126,"count":1413,"max":[1.2296206951141357,2.548305034637451,-0.12514078617095947],"min":[-1.2265024185180664,0.48326918482780457,-0.26050737500190735],"type":"VEC3"},{"bufferView":53,"componentType":5126,"count":1413,"type":"VEC3"},{"bufferView":54,"componentType":5126,"count":1413,"type":"VEC2"},{"bufferView":55,"componentType":5126,"count":1413,"type":"VEC2"},{"bufferView":56,"componentType":5123,"count":1413,"normalized":true,"type":"VEC4"},{"bufferView":57,"componentType":5123,"count":2985,"type":"SCALAR"},{"bufferView":58,"componentType":5126,"count":48,"max":[1.1542718410491943,2.152480125427246,-0.19170989096164703],"min":[-1.1542716026306152,0.5631401538848877,-0.19171002507209778],"type":"VEC3"},{"bufferView":59,"componentType":5126,"count":48,"type":"VEC3"},{"bufferView":60,"componentType":5126,"count":48,"type":"VEC2"},{"bufferView":61,"componentType":5126,"count":48,"type":"VEC2"},{"bufferView":62,"componentType":5123,"count":48,"normalized":true,"type":"VEC4"},{"bufferView":63,"componentType":5123,"count":72,"type":"SCALAR"},{"bufferView":64,"componentType":5126,"count":4,"max":[1.4260249137878418,2.8756752014160156,-0.1970006227493286],"min":[-1.4260249137878418,0.09556138515472412,-0.1970006227493286],"type":"VEC3"},{"bufferView":65,"componentType":5126,"count":4,"type":"VEC3"},{"bufferView":66,"componentType":5126,"count":4,"type":"VEC2"},{"bufferView":67,"componentType":5126,"count":4,"type":"VEC2"},{"bufferView":68,"componentType":5123,"count":4,"normalized":true,"type":"VEC4"},{"bufferView":69,"componentType":5123,"count":6,"type":"SCALAR"},{"bufferView":70,"componentType":5126,"count":4,"max":[1,3,1.3113415775478643e-07],"min":[-1,0,0],"type":"VEC3"},{"bufferView":71,"componentType":5126,"count":4,"type":"VEC3"},{"bufferView":72,"componentType":5126,"count":4,"type":"VEC2"},{"bufferView":73,"componentType":5126,"count":4,"type":"VEC2"},{"bufferView":74,"componentType":5123,"count":4,"normalized":true,"type":"VEC4"},{"bufferView":75,"componentType":5123,"count":6,"type":"SCALAR"},{"bufferView":76,"componentType":5126,"count":8,"max":[1,3.000000476837158,-0.2000000923871994],"min":[-1,0,-0.2000000923871994],"type":"VEC3"},{"bufferView":77,"componentType":5126,"count":8,"type":"VEC3"},{"bufferView":78,"componentType":5126,"count":8,"type":"VEC2"},{"bufferView":79,"componentType":5126,"count":8,"type":"VEC2"},{"bufferView":80,"componentType":5123,"count":8,"normalized":true,"type":"VEC4"},{"bufferView":81,"componentType":5123,"count":12,"type":"SCALAR"},{"bufferView":82,"componentType":5126,"count":4,"max":[1,1,4.371138828673793e-08],"min":[-1,0,0],"type":"VEC3"},{"bufferView":83,"componentType":5126,"count":4,"type":"VEC3"},{"bufferView":84,"componentType":5126,"count":4,"type":"VEC2"},{"bufferView":85,"componentType":5126,"count":4,"type":"VEC2"},{"bufferView":86,"componentType":5121,"count":4,"normalized":true,"type":"VEC4"},{"bufferView":87,"componentType":5123,"count":4,"normalized":true,"type":"VEC4"},{"bufferView":88,"componentType":5123,"count":6,"type":"SCALAR"},{"bufferView":89,"componentType":5126,"count":4,"max":[1,1.0000001192092896,-0.2000000923871994],"min":[-1,0,-0.2000000923871994],"type":"VEC3"},{"bufferView":90,"componentType":5126,"count":4,"type":"VEC3"},{"bufferView":91,"componentType":5126,"count":4,"type":"VEC2"},{"bufferView":92,"componentType":5126,"count":4,"type":"VEC2"},{"bufferView":93,"componentType":5121,"count":4,"normalized":true,"type":"VEC4"},{"bufferView":94,"componentType":5123,"count":4,"normalized":true,"type":"VEC4"},{"bufferView":95,"componentType":5123,"count":6,"type":"SCALAR"},{"bufferView":96,"componentType":5126,"count":86,"max":[1,3,0.028963593766093254],"min":[-1,0.33582091331481934,-1.778826117515564e-07],"type":"VEC3"},{"bufferView":97,"componentType":5126,"count":86,"type":"VEC3"},{"bufferView":98,"componentType":5126,"count":86,"type":"VEC2"},{"bufferView":99,"componentType":5126,"count":86,"type":"VEC2"},{"bufferView":100,"componentType":5121,"count":86,"normalized":true,"type":"VEC4"},{"bufferView":101,"componentType":5123,"count":86,"normalized":true,"type":"VEC4"},{"bufferView":102,"componentType":5123,"count":132,"type":"SCALAR"},{"bufferView":103,"componentType":5126,"count":4,"max":[1,0.33582091331481934,1.4679198301337237e-08],"min":[-1,0,0],"type":"VEC3"},{"bufferView":104,"componentType":5126,"count":4,"type":"VEC3"},{"bufferView":105,"componentType":5126,"count":4,"type":"VEC2"},{"bufferView":106,"componentType":5126,"count":4,"type":"VEC2"},{"bufferView":107,"componentType":5121,"count":4,"normalized":true,"type":"VEC4"},{"bufferView":108,"componentType":5123,"count":4,"normalized":true,"type":"VEC4"},{"bufferView":109,"componentType":5123,"count":6,"type":"SCALAR"},{"bufferView":110,"componentType":5126,"count":10,"max":[1,3.000000476837158,-0.2000000923871994],"min":[-1,0,-0.2000000923871994],"type":"VEC3"},{"bufferView":111,"componentType":5126,"count":10,"type":"VEC3"},{"bufferView":112,"componentType":5126,"count":10,"type":"VEC2"},{"bufferView":113,"componentType":5126,"count":10,"type":"VEC2"},{"bufferView":114,"componentType":5121,"count":10,"normalized":true,"type":"VEC4"},{"bufferView":115,"componentType":5123,"count":10,"normalized":true,"type":"VEC4"},{"bufferView":116,"componentType":5123,"count":18,"type":"SCALAR"},{"bufferView":117,"componentType":5126,"count":12,"max":[1,1,4.371138828673793e-08],"min":[-1,0,-0.4000000059604645],"type":"VEC3"},{"bufferView":118,"componentType":5126,"count":12,"type":"VEC3"},{"bufferView":119,"componentType":5126,"count":12,"type":"VEC2"},{"bufferView":120,"componentType":5126,"count":12,"type":"VEC2"},{"bufferView":121,"componentType":5121,"count":12,"normalized":true,"type":"VEC4"},{"bufferView":122,"componentType":5123,"count":12,"normalized":true,"type":"VEC4"},{"bufferView":123,"componentType":5123,"count":18,"type":"SCALAR"},{"bufferView":124,"componentType":5126,"count":60,"max":[1,1.0000386238098145,0.10000002384185791],"min":[-1,5.960464477539063e-08,-0.10000000149011612],"type":"VEC3"},{"bufferView":125,"componentType":5126,"count":60,"type":"VEC3"},{"bufferView":126,"componentType":5126,"count":60,"type":"VEC2"},{"bufferView":127,"componentType":5126,"count":60,"type":"VEC2"},{"bufferView":128,"componentType":5123,"count":60,"normalized":true,"type":"VEC4"},{"bufferView":129,"componentType":5123,"count":90,"type":"SCALAR"},{"bufferView":130,"componentType":5126,"count":40,"max":[1,0.4739086627960205,0.04200989753007889],"min":[-1,0,-0.21678370237350464],"type":"VEC3"},{"bufferView":131,"componentType":5126,"count":40,"type":"VEC3"},{"bufferView":132,"componentType":5126,"count":40,"type":"VEC2"},{"bufferView":133,"componentType":5126,"count":40,"type":"VEC2"},{"bufferView":134,"componentType":5123,"count":40,"normalized":true,"type":"VEC4"},{"bufferView":135,"componentType":5123,"count":84,"type":"SCALAR"},{"bufferView":136,"componentType":5126,"count":188,"max":[1,3,0.015472257509827614],"min":[-1,0.4739086329936981,-0.2167837917804718],"type":"VEC3"},{"bufferView":137,"componentType":5126,"count":188,"type":"VEC3"},{"bufferView":138,"componentType":5126,"count":188,"type":"VEC2"},{"bufferView":139,"componentType":5126,"count":188,"type":"VEC2"},{"bufferView":140,"componentType":5123,"count":188,"normalized":true,"type":"VEC4"},{"bufferView":141,"componentType":5123,"count":348,"type":"SCALAR"},{"bufferView":142,"componentType":5126,"count":8,"max":[0.9026076793670654,2.941300868988037,-0.06675992161035538],"min":[-0.9026076793670654,0.5159831643104553,-0.06676002591848373],"type":"VEC3"},{"bufferView":143,"componentType":5126,"count":8,"type":"VEC3"},{"bufferView":144,"componentType":5126,"count":8,"type":"VEC2"},{"bufferView":145,"componentType":5126,"count":8,"type":"VEC2"},{"bufferView":146,"componentType":5123,"count":8,"normalized":true,"type":"VEC4"},{"bufferView":147,"componentType":5123,"count":12,"type":"SCALAR"},{"bufferView":148,"componentType":5126,"count":4,"max":[0.9872606992721558,2.982274055480957,-0.07328123599290848],"min":[-0.9872606992721558,0.20216023921966553,-0.07328123599290848],"type":"VEC3"},{"bufferView":149,"componentType":5126,"count":4,"type":"VEC3"},{"bufferView":150,"componentType":5126,"count":4,"type":"VEC2"},{"bufferView":151,"componentType":5126,"count":4,"type":"VEC2"},{"bufferView":152,"componentType":5123,"count":4,"normalized":true,"type":"VEC4"},{"bufferView":153,"componentType":5123,"count":6,"type":"SCALAR"},{"bufferView":154,"componentType":5126,"count":8,"max":[1,0.4739086627960205,-0.2000000923871994],"min":[-1,0,-0.2000000923871994],"type":"VEC3"},{"bufferView":155,"componentType":5126,"count":8,"type":"VEC3"},{"bufferView":156,"componentType":5126,"count":8,"type":"VEC2"},{"bufferView":157,"componentType":5126,"count":8,"type":"VEC2"},{"bufferView":158,"componentType":5123,"count":8,"normalized":true,"type":"VEC4"},{"bufferView":159,"componentType":5123,"count":18,"type":"SCALAR"},{"bufferView":160,"componentType":5126,"count":762,"max":[1.1519986391067505,3,0.22254636883735657],"min":[-1.1519986391067505,0,-0.2552735507488251],"type":"VEC3"},{"bufferView":161,"componentType":5126,"count":762,"type":"VEC3"},{"bufferView":162,"componentType":5126,"count":762,"type":"VEC2"},{"bufferView":163,"componentType":5126,"count":762,"type":"VEC2"},{"bufferView":164,"componentType":5123,"count":1278,"type":"SCALAR"},{"bufferView":165,"componentType":5126,"count":16,"max":[0.7914929986000061,2.5556704998016357,-0.07851829379796982],"min":[-0.7914929986000061,0.024771062657237053,-0.07851829379796982],"type":"VEC3"},{"bufferView":166,"componentType":5126,"count":16,"type":"VEC3"},{"bufferView":167,"componentType":5126,"count":16,"type":"VEC2"},{"bufferView":168,"componentType":5126,"count":16,"type":"VEC2"},{"bufferView":169,"componentType":5123,"count":36,"type":"SCALAR"},{"bufferView":170,"componentType":5126,"count":980,"max":[0,2.1999998092651367,0.13043706119060516],"min":[-0.9999997615814209,0,-0.12941691279411316],"type":"VEC3"},{"bufferView":171,"componentType":5126,"count":980,"type":"VEC3"},{"bufferView":172,"componentType":5126,"count":980,"type":"VEC2"},{"bufferView":173,"componentType":5126,"count":980,"type":"VEC2"},{"bufferView":174,"componentType":5123,"count":2028,"type":"SCALAR"},{"bufferView":175,"componentType":5126,"count":24,"max":[1,3,0],"min":[-1,0,-2],"type":"VEC3"},{"bufferView":176,"componentType":5126,"count":24,"type":"VEC3"},{"bufferView":177,"componentType":5126,"count":24,"type":"VEC2"},{"bufferView":178,"componentType":5126,"count":24,"type":"VEC2"},{"bufferView":179,"componentType":5123,"count":66,"type":"SCALAR"},{"bufferView":180,"componentType":5126,"count":483,"max":[0.7709819078445435,2.6379785537719727,0.1186903715133667],"min":[-0.7709819078445435,0.030997157096862793,-0.8816167712211609],"type":"VEC3"},{"bufferView":181,"componentType":5126,"count":483,"type":"VEC3"},{"bufferView":182,"componentType":5126,"count":483,"type":"VEC2"},{"bufferView":183,"componentType":5126,"count":483,"type":"VEC2"},{"bufferView":184,"componentType":5123,"count":996,"type":"SCALAR"},{"bufferView":185,"componentType":5126,"count":16,"max":[0.30977874994277954,1.9567503929138184,-0.10610312223434448],"min":[-0.30977874994277954,0.207726389169693,-0.13160943984985352],"type":"VEC3"},{"bufferView":186,"componentType":5126,"count":16,"type":"VEC3"},{"bufferView":187,"componentType":5126,"count":16,"type":"VEC2"},{"bufferView":188,"componentType":5126,"count":16,"type":"VEC2"},{"bufferView":189,"componentType":5123,"count":24,"type":"SCALAR"},{"bufferView":190,"componentType":5126,"count":4,"max":[0.5516629219055176,2.491422176361084,-0.13368356227874756],"min":[-0.5516629219055176,0.02259528636932373,-0.13368356227874756],"type":"VEC3"},{"bufferView":191,"componentType":5126,"count":4,"type":"VEC3"},{"bufferView":192,"componentType":5126,"count":4,"type":"VEC2"},{"bufferView":193,"componentType":5126,"count":4,"type":"VEC2"},{"bufferView":194,"componentType":5123,"count":6,"type":"SCALAR"},{"bufferView":195,"componentType":5126,"count":8,"max":[1,3,-2],"min":[-1,2.799999952316284,-2],"type":"VEC3"},{"bufferView":196,"componentType":5126,"count":8,"type":"VEC3"},{"bufferView":197,"componentType":5126,"count":8,"type":"VEC2"},{"bufferView":198,"componentType":5126,"count":8,"type":"VEC2"},{"bufferView":199,"componentType":5123,"count":18,"type":"SCALAR"},{"bufferView":200,"componentType":5126,"count":71,"max":[1,3.01396107673645,0.03471875190734863],"min":[-1.0232187509536743,-0.014185667037963867,-2],"type":"VEC3"},{"bufferView":201,"componentType":5126,"count":71,"type":"VEC3"},{"bufferView":202,"componentType":5126,"count":71,"type":"VEC2"},{"bufferView":203,"componentType":5126,"count":71,"type":"VEC2"},{"bufferView":204,"componentType":5123,"count":132,"type":"SCALAR"},{"bufferView":205,"componentType":5126,"count":8,"max":[1,3,0],"min":[-1,0,-2],"type":"VEC3"},{"bufferView":206,"componentType":5126,"count":8,"type":"VEC3"},{"bufferView":207,"componentType":5126,"count":8,"type":"VEC2"},{"bufferView":208,"componentType":5126,"count":8,"type":"VEC2"},{"bufferView":209,"componentType":5123,"count":12,"type":"SCALAR"},{"bufferView":210,"componentType":5126,"count":4,"max":[1,3,-2],"min":[-1,2.799999952316284,-2],"type":"VEC3"},{"bufferView":211,"componentType":5126,"count":4,"type":"VEC3"},{"bufferView":212,"componentType":5126,"count":4,"type":"VEC2"},{"bufferView":213,"componentType":5126,"count":4,"type":"VEC2"},{"bufferView":214,"componentType":5123,"count":6,"type":"SCALAR"},{"bufferView":215,"componentType":5126,"count":16,"max":[2,-0.20000000298023224,2],"min":[-2,-0.20000000298023224,-2],"type":"VEC3"},{"bufferView":216,"componentType":5126,"count":16,"type":"VEC3"},{"bufferView":217,"componentType":5126,"count":16,"type":"VEC2"},{"bufferView":218,"componentType":5123,"count":24,"type":"SCALAR"},{"bufferView":219,"componentType":5126,"count":210,"max":[1,0.6000000238418579,1],"min":[-1,0,-1],"type":"VEC3"},{"bufferView":220,"componentType":5126,"count":210,"type":"VEC3"},{"bufferView":221,"componentType":5126,"count":210,"type":"VEC2"},{"bufferView":222,"componentType":5126,"count":210,"type":"VEC2"},{"bufferView":223,"componentType":5123,"count":336,"type":"SCALAR"},{"bufferView":224,"componentType":5126,"count":8,"max":[0.800000011920929,0.5745222568511963,0.800000011920929],"min":[-0.800000011920929,0.5745222568511963,-0.800000011920929],"type":"VEC3"},{"bufferView":225,"componentType":5126,"count":8,"type":"VEC3"},{"bufferView":226,"componentType":5126,"count":8,"type":"VEC2"},{"bufferView":227,"componentType":5126,"count":8,"type":"VEC2"},{"bufferView":228,"componentType":5123,"count":18,"type":"SCALAR"},{"bufferView":229,"componentType":5126,"count":20,"max":[0.2925943434238434,0.040405962616205215,0.2925943434238434],"min":[-0.2925943434238434,0,-0.2925943434238434],"type":"VEC3"},{"bufferView":230,"componentType":5126,"count":20,"type":"VEC3"},{"bufferView":231,"componentType":5126,"count":20,"type":"VEC2"},{"bufferView":232,"componentType":5123,"count":30,"type":"SCALAR"},{"bufferView":233,"componentType":5126,"count":120,"max":[0.4625564217567444,0.019080566242337227,0.4625564217567444],"min":[-0.4625564217567444,-0.013890458270907402,-0.4625564217567444],"type":"VEC3"},{"bufferView":234,"componentType":5126,"count":120,"type":"VEC3"},{"bufferView":235,"componentType":5126,"count":120,"type":"VEC2"},{"bufferView":236,"componentType":5123,"count":354,"type":"SCALAR"},{"bufferView":237,"componentType":5126,"count":336,"max":[0.9694748520851135,1.9694111347198486,1],"min":[-0.9694748520851135,0.9713395833969116,0],"type":"VEC3"},{"bufferView":238,"componentType":5126,"count":336,"type":"VEC3"},{"bufferView":239,"componentType":5126,"count":336,"type":"VEC2"},{"bufferView":240,"componentType":5126,"count":336,"type":"VEC2"},{"bufferView":241,"componentType":5123,"count":504,"type":"SCALAR"},{"bufferView":242,"componentType":5126,"count":5618,"type":"VEC4"},{"bufferView":243,"componentType":5126,"count":5618,"max":[1.2684564590454102,6.483748912811279,1.3548027276992798],"min":[-1.3591265678405762,-0.24277201294898987,-1.126320481300354],"type":"VEC3"},{"bufferView":244,"componentType":5126,"count":5618,"type":"VEC3"},{"bufferView":245,"componentType":5126,"count":5618,"type":"VEC2"},{"bufferView":246,"componentType":5123,"count":13035,"type":"SCALAR"},{"bufferView":247,"componentType":5126,"count":3840,"type":"VEC4"},{"bufferView":248,"componentType":5126,"count":3840,"max":[2.116964101791382,7.022013187408447,2.3531949520111084],"min":[-2.1944587230682373,2.3466193675994873,-2.2245190143585205],"type":"VEC3"},{"bufferView":249,"componentType":5126,"count":3840,"type":"VEC3"},{"bufferView":250,"componentType":5126,"count":3840,"type":"VEC2"},{"bufferView":251,"componentType":5123,"count":5760,"type":"SCALAR"},{"bufferView":252,"componentType":5126,"count":2149,"type":"VEC4"},{"bufferView":253,"componentType":5126,"count":2149,"max":[1.0429332256317139,7.97797966003418,1.102728247642517],"min":[-0.848488450050354,-0.24277201294898987,-0.8173294067382812],"type":"VEC3"},{"bufferView":254,"componentType":5126,"count":2149,"type":"VEC3"},{"bufferView":255,"componentType":5126,"count":2149,"type":"VEC2"},{"bufferView":256,"componentType":5123,"count":5115,"type":"SCALAR"},{"bufferView":257,"componentType":5126,"count":3600,"type":"VEC4"},{"bufferView":258,"componentType":5126,"count":3600,"max":[2.076380968093872,9.182417869567871,2.1801114082336426],"min":[-1.9864652156829834,2.5763165950775146,-2.0609655380249023],"type":"VEC3"},{"bufferView":259,"componentType":5126,"count":3600,"type":"VEC3"},{"bufferView":260,"componentType":5126,"count":3600,"type":"VEC2"},{"bufferView":261,"componentType":5123,"count":5400,"type":"SCALAR"},{"bufferView":262,"componentType":5126,"count":4328,"type":"VEC4"},{"bufferView":263,"componentType":5126,"count":4328,"max":[1.236419439315796,7.957448959350586,1.0542998313903809],"min":[-1.167366862297058,-0.24277201294898987,-1.212726354598999],"type":"VEC3"},{"bufferView":264,"componentType":5126,"count":4328,"type":"VEC3"},{"bufferView":265,"componentType":5126,"count":4328,"type":"VEC2"},{"bufferView":266,"componentType":5123,"count":9840,"type":"SCALAR"},{"bufferView":267,"componentType":5126,"count":1572,"type":"VEC4"},{"bufferView":268,"componentType":5126,"count":1572,"max":[2.028430461883545,9.195609092712402,1.6757631301879883],"min":[-1.7970952987670898,5.8085174560546875,-2.0796103477478027],"type":"VEC3"},{"bufferView":269,"componentType":5126,"count":1572,"type":"VEC3"},{"bufferView":270,"componentType":5126,"count":1572,"type":"VEC2"},{"bufferView":271,"componentType":5123,"count":2358,"type":"SCALAR"},{"bufferView":272,"componentType":5126,"count":1800,"type":"VEC4"},{"bufferView":273,"componentType":5126,"count":1800,"max":[0.9913685917854309,1.3470909595489502,0.9907516837120056],"min":[-0.9234761595726013,-0.234694704413414,-0.9743891954421997],"type":"VEC3"},{"bufferView":274,"componentType":5126,"count":1800,"type":"VEC3"},{"bufferView":275,"componentType":5126,"count":1800,"type":"VEC2"},{"bufferView":276,"componentType":5123,"count":2700,"type":"SCALAR"},{"bufferView":277,"componentType":5126,"count":1800,"type":"VEC4"},{"bufferView":278,"componentType":5126,"count":1800,"max":[0.9913685917854309,1.3470909595489502,0.9907516837120056],"min":[-0.9234761595726013,-0.234694704413414,-0.9743891954421997],"type":"VEC3"},{"bufferView":279,"componentType":5126,"count":1800,"type":"VEC3"},{"bufferView":280,"componentType":5126,"count":1800,"type":"VEC2"},{"bufferView":281,"componentType":5123,"count":2700,"type":"SCALAR"},{"bufferView":282,"componentType":5126,"count":715,"type":"VEC4"},{"bufferView":283,"componentType":5126,"count":715,"max":[0.9718135595321655,1.328537940979004,0.98771071434021],"min":[-0.7453983426094055,0.2586841881275177,-0.9251851439476013],"type":"VEC3"},{"bufferView":284,"componentType":5126,"count":715,"type":"VEC3"},{"bufferView":285,"componentType":5126,"count":715,"type":"VEC2"},{"bufferView":286,"componentType":5123,"count":1404,"type":"SCALAR"},{"bufferView":287,"componentType":5123,"count":533,"normalized":true,"type":"VEC4"},{"bufferView":288,"componentType":5126,"count":533,"max":[0.7883017063140869,1.7742599248886108,0.7045559287071228],"min":[-0.568230926990509,-0.03458359092473984,-0.5427353382110596],"type":"VEC3"},{"bufferView":289,"componentType":5126,"count":533,"type":"VEC3"},{"bufferView":290,"componentType":5126,"count":533,"type":"VEC2"},{"bufferView":291,"componentType":5123,"count":2130,"type":"SCALAR"},{"bufferView":292,"componentType":5123,"count":48,"normalized":true,"type":"VEC4"},{"bufferView":293,"componentType":5126,"count":48,"max":[0.8748752474784851,2.020251512527466,0.789365291595459],"min":[-0.6136013269424438,1.4516462087631226,-0.8017617464065552],"type":"VEC3"},{"bufferView":294,"componentType":5126,"count":48,"type":"VEC3"},{"bufferView":295,"componentType":5126,"count":48,"type":"VEC2"},{"bufferView":296,"componentType":5123,"count":135,"type":"SCALAR"},{"bufferView":297,"componentType":5123,"count":302,"normalized":true,"type":"VEC4"},{"bufferView":298,"componentType":5126,"count":302,"max":[0.6255365610122681,2.2943496704101562,0.5279141068458557],"min":[-0.7901612520217896,-0.05699761211872101,-0.6181322932243347],"type":"VEC3"},{"bufferView":299,"componentType":5126,"count":302,"type":"VEC3"},{"bufferView":300,"componentType":5126,"count":302,"type":"VEC2"},{"bufferView":301,"componentType":5123,"count":1470,"type":"SCALAR"},{"bufferView":302,"componentType":5123,"count":1000,"normalized":true,"type":"VEC4"},{"bufferView":303,"componentType":5126,"count":1000,"max":[0.8491399884223938,2.4297707080841064,0.7313783168792725],"min":[-0.9313857555389404,1.122023582458496,-0.6361504197120667],"type":"VEC3"},{"bufferView":304,"componentType":5126,"count":1000,"type":"VEC3"},{"bufferView":305,"componentType":5126,"count":1000,"type":"VEC2"},{"bufferView":306,"componentType":5123,"count":3600,"type":"SCALAR"},{"bufferView":307,"componentType":5123,"count":153,"normalized":true,"type":"VEC4"},{"bufferView":308,"componentType":5126,"count":153,"max":[0.2832280695438385,1.311718225479126,0.25788721442222595],"min":[-0.3556424081325531,-0.022385215386748314,-0.47937828302383423],"type":"VEC3"},{"bufferView":309,"componentType":5126,"count":153,"type":"VEC3"},{"bufferView":310,"componentType":5126,"count":153,"type":"VEC2"},{"bufferView":311,"componentType":5123,"count":465,"type":"SCALAR"},{"bufferView":312,"componentType":5123,"count":243,"normalized":true,"type":"VEC4"},{"bufferView":313,"componentType":5126,"count":243,"max":[4.626213073730469,2.4413082599639893,4.396108150482178],"min":[-4.419975280761719,-0.2474701851606369,-4.091315746307373],"type":"VEC3"},{"bufferView":314,"componentType":5126,"count":243,"type":"VEC3"},{"bufferView":315,"componentType":5126,"count":243,"type":"VEC2"},{"bufferView":316,"componentType":5123,"count":864,"type":"SCALAR"}],"bufferViews":[{"buffer":0,"byteLength":816,"byteOffset":0,"target":34962},{"buffer":0,"byteLength":816,"byteOffset":816,"target":34962},{"buffer":0,"byteLength":544,"byteOffset":1632,"target":34962},{"buffer":0,"byteLength":544,"byteOffset":2176,"target":34962},{"buffer":0,"byteLength":544,"byteOffset":2720,"target":34962},{"buffer":0,"byteLength":272,"byteOffset":3264,"target":34962},{"buffer":0,"byteLength":544,"byteOffset":3536,"target":34962},{"buffer":0,"byteLength":288,"byteOffset":4080,"target":34963},{"buffer":0,"byteLength":10584,"byteOffset":4368,"target":34962},{"buffer":0,"byteLength":10584,"byteOffset":14952,"target":34962},{"buffer":0,"byteLength":7056,"byteOffset":25536,"target":34962},{"buffer":0,"byteLength":7056,"byteOffset":32592,"target":34962},{"buffer":0,"byteLength":7056,"byteOffset":39648,"target":34962},{"buffer":0,"byteLength":3528,"byteOffset":46704,"target":34962},{"buffer":0,"byteLength":7056,"byteOffset":50232,"target":34962},{"buffer":0,"byteLength":3372,"byteOffset":57288,"target":34963},{"buffer":0,"byteLength":576,"byteOffset":60660,"target":34962},{"buffer":0,"byteLength":576,"byteOffset":61236,"target":34962},{"buffer":0,"byteLength":384,"byteOffset":61812,"target":34962},{"buffer":0,"byteLength":384,"byteOffset":62196,"target":34962},{"buffer":0,"byteLength":384,"byteOffset":62580,"target":34962},{"buffer":0,"byteLength":192,"byteOffset":62964,"target":34962},{"buffer":0,"byteLength":384,"byteOffset":63156,"target":34962},{"buffer":0,"byteLength":144,"byteOffset":63540,"target":34963},{"buffer":0,"byteLength":48,"byteOffset":63684,"target":34962},{"buffer":0,"byteLength":48,"byteOffset":63732,"target":34962},{"buffer":0,"byteLength":32,"byteOffset":63780,"target":34962},{"buffer":0,"byteLength":32,"byteOffset":63812,"target":34962},{"buffer":0,"byteLength":32,"byteOffset":63844,"target":34962},{"buffer":0,"byteLength":16,"byteOffset":63876,"target":34962},{"buffer":0,"byteLength":32,"byteOffset":63892,"target":34962},{"buffer":0,"byteLength":12,"byteOffset":63924,"target":34963},{"buffer":0,"byteLength":240,"byteOffset":63936,"target":34962},{"buffer":0,"byteLength":240,"byteOffset":64176,"target":34962},{"buffer":0,"byteLength":160,"byteOffset":64416,"target":34962},{"buffer":0,"byteLength":160,"byteOffset":64576,"target":34962},{"buffer":0,"byteLength":160,"byteOffset":64736,"target":34962},{"buffer":0,"byteLength":80,"byteOffset":64896,"target":34962},{"buffer":0,"byteLength":160,"byteOffset":64976,"target":34962},{"buffer":0,"byteLength":96,"byteOffset":65136,"target":34963},{"buffer":0,"byteLength":1512,"byteOffset":65232,"target":34962},{"buffer":0,"byteLength":1512,"byteOffset":66744,"target":34962},{"buffer":0,"byteLength":1008,"byteOffset":68256,"target":34962},{"buffer":0,"byteLength":1008,"byteOffset":69264,"target":34962},{"buffer":0,"byteLength":1008,"byteOffset":70272,"target":34962},{"buffer":0,"byteLength":576,"byteOffset":71280,"target":34963},{"buffer":0,"byteLength":336,"byteOffset":71856,"target":34962},{"buffer":0,"byteLength":336,"byteOffset":72192,"target":34962},{"buffer":0,"byteLength":224,"byteOffset":72528,"target":34962},{"buffer":0,"byteLength":224,"byteOffset":72752,"target":34962},{"buffer":0,"byteLength":224,"byteOffset":72976,"target":34962},{"buffer":0,"byteLength":120,"byteOffset":73200,"target":34963},{"buffer":0,"byteLength":16956,"byteOffset":73320,"target":34962},{"buffer":0,"byteLength":16956,"byteOffset":90276,"target":34962},{"buffer":0,"byteLength":11304,"byteOffset":107232,"target":34962},{"buffer":0,"byteLength":11304,"byteOffset":118536,"target":34962},{"buffer":0,"byteLength":11304,"byteOffset":129840,"target":34962},{"buffer":0,"byteLength":5970,"byteOffset":141144,"target":34963},{"buffer":0,"byteLength":576,"byteOffset":147116,"target":34962},{"buffer":0,"byteLength":576,"byteOffset":147692,"target":34962},{"buffer":0,"byteLength":384,"byteOffset":148268,"target":34962},{"buffer":0,"byteLength":384,"byteOffset":148652,"target":34962},{"buffer":0,"byteLength":384,"byteOffset":149036,"target":34962},{"buffer":0,"byteLength":144,"byteOffset":149420,"target":34963},{"buffer":0,"byteLength":48,"byteOffset":149564,"target":34962},{"buffer":0,"byteLength":48,"byteOffset":149612,"target":34962},{"buffer":0,"byteLength":32,"byteOffset":149660,"target":34962},{"buffer":0,"byteLength":32,"byteOffset":149692,"target":34962},{"buffer":0,"byteLength":32,"byteOffset":149724,"target":34962},{"buffer":0,"byteLength":12,"byteOffset":149756,"target":34963},{"buffer":0,"byteLength":48,"byteOffset":149768,"target":34962},{"buffer":0,"byteLength":48,"byteOffset":149816,"target":34962},{"buffer":0,"byteLength":32,"byteOffset":149864,"target":34962},{"buffer":0,"byteLength":32,"byteOffset":149896,"target":34962},{"buffer":0,"byteLength":32,"byteOffset":149928,"target":34962},{"buffer":0,"byteLength":12,"byteOffset":149960,"target":34963},{"buffer":0,"byteLength":96,"byteOffset":149972,"target":34962},{"buffer":0,"byteLength":96,"byteOffset":150068,"target":34962},{"buffer":0,"byteLength":64,"byteOffset":150164,"target":34962},{"buffer":0,"byteLength":64,"byteOffset":150228,"target":34962},{"buffer":0,"byteLength":64,"byteOffset":150292,"target":34962},{"buffer":0,"byteLength":24,"byteOffset":150356,"target":34963},{"buffer":0,"byteLength":48,"byteOffset":150380,"target":34962},{"buffer":0,"byteLength":48,"byteOffset":150428,"target":34962},{"buffer":0,"byteLength":32,"byteOffset":150476,"target":34962},{"buffer":0,"byteLength":32,"byteOffset":150508,"target":34962},{"buffer":0,"byteLength":16,"byteOffset":150540,"target":34962},{"buffer":0,"byteLength":32,"byteOffset":150556,"target":34962},{"buffer":0,"byteLength":12,"byteOffset":150588,"target":34963},{"buffer":0,"byteLength":48,"byteOffset":150600,"target":34962},{"buffer":0,"byteLength":48,"byteOffset":150648,"target":34962},{"buffer":0,"byteLength":32,"byteOffset":150696,"target":34962},{"buffer":0,"byteLength":32,"byteOffset":150728,"target":34962},{"buffer":0,"byteLength":16,"byteOffset":150760,"target":34962},{"buffer":0,"byteLength":32,"byteOffset":150776,"target":34962},{"buffer":0,"byteLength":12,"byteOffset":150808,"target":34963},{"buffer":0,"byteLength":1032,"byteOffset":150820,"target":34962},{"buffer":0,"byteLength":1032,"byteOffset":151852,"target":34962},{"buffer":0,"byteLength":688,"byteOffset":152884,"target":34962},{"buffer":0,"byteLength":688,"byteOffset":153572,"target":34962},{"buffer":0,"byteLength":344,"byteOffset":154260,"target":34962},{"buffer":0,"byteLength":688,"byteOffset":154604,"target":34962},{"buffer":0,"byteLength":264,"byteOffset":155292,"target":34963},{"buffer":0,"byteLength":48,"byteOffset":155556,"target":34962},{"buffer":0,"byteLength":48,"byteOffset":155604,"target":34962},{"buffer":0,"byteLength":32,"byteOffset":155652,"target":34962},{"buffer":0,"byteLength":32,"byteOffset":155684,"target":34962},{"buffer":0,"byteLength":16,"byteOffset":155716,"target":34962},{"buffer":0,"byteLength":32,"byteOffset":155732,"target":34962},{"buffer":0,"byteLength":12,"byteOffset":155764,"target":34963},{"buffer":0,"byteLength":120,"byteOffset":155776,"target":34962},{"buffer":0,"byteLength":120,"byteOffset":155896,"target":34962},{"buffer":0,"byteLength":80,"byteOffset":156016,"target":34962},{"buffer":0,"byteLength":80,"byteOffset":156096,"target":34962},{"buffer":0,"byteLength":40,"byteOffset":156176,"target":34962},{"buffer":0,"byteLength":80,"byteOffset":156216,"target":34962},{"buffer":0,"byteLength":36,"byteOffset":156296,"target":34963},{"buffer":0,"byteLength":144,"byteOffset":156332,"target":34962},{"buffer":0,"byteLength":144,"byteOffset":156476,"target":34962},{"buffer":0,"byteLength":96,"byteOffset":156620,"target":34962},{"buffer":0,"byteLength":96,"byteOffset":156716,"target":34962},{"buffer":0,"byteLength":48,"byteOffset":156812,"target":34962},{"buffer":0,"byteLength":96,"byteOffset":156860,"target":34962},{"buffer":0,"byteLength":36,"byteOffset":156956,"target":34963},{"buffer":0,"byteLength":720,"byteOffset":156992,"target":34962},{"buffer":0,"byteLength":720,"byteOffset":157712,"target":34962},{"buffer":0,"byteLength":480,"byteOffset":158432,"target":34962},{"buffer":0,"byteLength":480,"byteOffset":158912,"target":34962},{"buffer":0,"byteLength":480,"byteOffset":159392,"target":34962},{"buffer":0,"byteLength":180,"byteOffset":159872,"target":34963},{"buffer":0,"byteLength":480,"byteOffset":160052,"target":34962},{"buffer":0,"byteLength":480,"byteOffset":160532,"target":34962},{"buffer":0,"byteLength":320,"byteOffset":161012,"target":34962},{"buffer":0,"byteLength":320,"byteOffset":161332,"target":34962},{"buffer":0,"byteLength":320,"byteOffset":161652,"target":34962},{"buffer":0,"byteLength":168,"byteOffset":161972,"target":34963},{"buffer":0,"byteLength":2256,"byteOffset":162140,"target":34962},{"buffer":0,"byteLength":2256,"byteOffset":164396,"target":34962},{"buffer":0,"byteLength":1504,"byteOffset":166652,"target":34962},{"buffer":0,"byteLength":1504,"byteOffset":168156,"target":34962},{"buffer":0,"byteLength":1504,"byteOffset":169660,"target":34962},{"buffer":0,"byteLength":696,"byteOffset":171164,"target":34963},{"buffer":0,"byteLength":96,"byteOffset":171860,"target":34962},{"buffer":0,"byteLength":96,"byteOffset":171956,"target":34962},{"buffer":0,"byteLength":64,"byteOffset":172052,"target":34962},{"buffer":0,"byteLength":64,"byteOffset":172116,"target":34962},{"buffer":0,"byteLength":64,"byteOffset":172180,"target":34962},{"buffer":0,"byteLength":24,"byteOffset":172244,"target":34963},{"buffer":0,"byteLength":48,"byteOffset":172268,"target":34962},{"buffer":0,"byteLength":48,"byteOffset":172316,"target":34962},{"buffer":0,"byteLength":32,"byteOffset":172364,"target":34962},{"buffer":0,"byteLength":32,"byteOffset":172396,"target":34962},{"buffer":0,"byteLength":32,"byteOffset":172428,"target":34962},{"buffer":0,"byteLength":12,"byteOffset":172460,"target":34963},{"buffer":0,"byteLength":96,"byteOffset":172472,"target":34962},{"buffer":0,"byteLength":96,"byteOffset":172568,"target":34962},{"buffer":0,"byteLength":64,"byteOffset":172664,"target":34962},{"buffer":0,"byteLength":64,"byteOffset":172728,"target":34962},{"buffer":0,"byteLength":64,"byteOffset":172792,"target":34962},{"buffer":0,"byteLength":36,"byteOffset":172856,"target":34963},{"buffer":0,"byteLength":9144,"byteOffset":172892,"target":34962},{"buffer":0,"byteLength":9144,"byteOffset":182036,"target":34962},{"buffer":0,"byteLength":6096,"byteOffset":191180,"target":34962},{"buffer":0,"byteLength":6096,"byteOffset":197276,"target":34962},{"buffer":0,"byteLength":2556,"byteOffset":203372,"target":34963},{"buffer":0,"byteLength":192,"byteOffset":205928,"target":34962},{"buffer":0,"byteLength":192,"byteOffset":206120,"target":34962},{"buffer":0,"byteLength":128,"byteOffset":206312,"target":34962},{"buffer":0,"byteLength":128,"byteOffset":206440,"target":34962},{"buffer":0,"byteLength":72,"byteOffset":206568,"target":34963},{"buffer":0,"byteLength":11760,"byteOffset":206640,"target":34962},{"buffer":0,"byteLength":11760,"byteOffset":218400,"target":34962},{"buffer":0,"byteLength":7840,"byteOffset":230160,"target":34962},{"buffer":0,"byteLength":7840,"byteOffset":238000,"target":34962},{"buffer":0,"byteLength":4056,"byteOffset":245840,"target":34963},{"buffer":0,"byteLength":288,"byteOffset":249896,"target":34962},{"buffer":0,"byteLength":288,"byteOffset":250184,"target":34962},{"buffer":0,"byteLength":192,"byteOffset":250472,"target":34962},{"buffer":0,"byteLength":192,"byteOffset":250664,"target":34962},{"buffer":0,"byteLength":132,"byteOffset":250856,"target":34963},{"buffer":0,"byteLength":5796,"byteOffset":250988,"target":34962},{"buffer":0,"byteLength":5796,"byteOffset":256784,"target":34962},{"buffer":0,"byteLength":3864,"byteOffset":262580,"target":34962},{"buffer":0,"byteLength":3864,"byteOffset":266444,"target":34962},{"buffer":0,"byteLength":1992,"byteOffset":270308,"target":34963},{"buffer":0,"byteLength":192,"byteOffset":272300,"target":34962},{"buffer":0,"byteLength":192,"byteOffset":272492,"target":34962},{"buffer":0,"byteLength":128,"byteOffset":272684,"target":34962},{"buffer":0,"byteLength":128,"byteOffset":272812,"target":34962},{"buffer":0,"byteLength":48,"byteOffset":272940,"target":34963},{"buffer":0,"byteLength":48,"byteOffset":272988,"target":34962},{"buffer":0,"byteLength":48,"byteOffset":273036,"target":34962},{"buffer":0,"byteLength":32,"byteOffset":273084,"target":34962},{"buffer":0,"byteLength":32,"byteOffset":273116,"target":34962},{"buffer":0,"byteLength":12,"byteOffset":273148,"target":34963},{"buffer":0,"byteLength":96,"byteOffset":273160,"target":34962},{"buffer":0,"byteLength":96,"byteOffset":273256,"target":34962},{"buffer":0,"byteLength":64,"byteOffset":273352,"target":34962},{"buffer":0,"byteLength":64,"byteOffset":273416,"target":34962},{"buffer":0,"byteLength":36,"byteOffset":273480,"target":34963},{"buffer":0,"byteLength":852,"byteOffset":273516,"target":34962},{"buffer":0,"byteLength":852,"byteOffset":274368,"target":34962},{"buffer":0,"byteLength":568,"byteOffset":275220,"target":34962},{"buffer":0,"byteLength":568,"byteOffset":275788,"target":34962},{"buffer":0,"byteLength":264,"byteOffset":276356,"target":34963},{"buffer":0,"byteLength":96,"byteOffset":276620,"target":34962},{"buffer":0,"byteLength":96,"byteOffset":276716,"target":34962},{"buffer":0,"byteLength":64,"byteOffset":276812,"target":34962},{"buffer":0,"byteLength":64,"byteOffset":276876,"target":34962},{"buffer":0,"byteLength":24,"byteOffset":276940,"target":34963},{"buffer":0,"byteLength":48,"byteOffset":276964,"target":34962},{"buffer":0,"byteLength":48,"byteOffset":277012,"target":34962},{"buffer":0,"byteLength":32,"byteOffset":277060,"target":34962},{"buffer":0,"byteLength":32,"byteOffset":277092,"target":34962},{"buffer":0,"byteLength":12,"byteOffset":277124,"target":34963},{"buffer":0,"byteLength":192,"byteOffset":277136,"target":34962},{"buffer":0,"byteLength":192,"byteOffset":277328,"target":34962},{"buffer":0,"byteLength":128,"byteOffset":277520,"target":34962},{"buffer":0,"byteLength":48,"byteOffset":277648,"target":34963},{"buffer":0,"byteLength":2520,"byteOffset":277696,"target":34962},{"buffer":0,"byteLength":2520,"byteOffset":280216,"target":34962},{"buffer":0,"byteLength":1680,"byteOffset":282736,"target":34962},{"buffer":0,"byteLength":1680,"byteOffset":284416,"target":34962},{"buffer":0,"byteLength":672,"byteOffset":286096,"target":34963},{"buffer":0,"byteLength":96,"byteOffset":286768,"target":34962},{"buffer":0,"byteLength":96,"byteOffset":286864,"target":34962},{"buffer":0,"byteLength":64,"byteOffset":286960,"target":34962},{"buffer":0,"byteLength":64,"byteOffset":287024,"target":34962},{"buffer":0,"byteLength":36,"byteOffset":287088,"target":34963},{"buffer":0,"byteLength":240,"byteOffset":287124,"target":34962},{"buffer":0,"byteLength":240,"byteOffset":287364,"target":34962},{"buffer":0,"byteLength":160,"byteOffset":287604,"target":34962},{"buffer":0,"byteLength":60,"byteOffset":287764,"target":34963},{"buffer":0,"byteLength":1440,"byteOffset":287824,"target":34962},{"buffer":0,"byteLength":1440,"byteOffset":289264,"target":34962},{"buffer":0,"byteLength":960,"byteOffset":290704,"target":34962},{"buffer":0,"byteLength":708,"byteOffset":291664,"target":34963},{"buffer":0,"byteLength":4032,"byteOffset":292372,"target":34962},{"buffer":0,"byteLength":4032,"byteOffset":296404,"target":34962},{"buffer":0,"byteLength":2688,"byteOffset":300436,"target":34962},{"buffer":0,"byteLength":2688,"byteOffset":303124,"target":34962},{"buffer":0,"byteLength":1008,"byteOffset":305812,"target":34963},{"buffer":0,"byteLength":89888,"byteOffset":306820,"target":34962},{"buffer":0,"byteLength":67416,"byteOffset":396708,"target":34962},{"buffer":0,"byteLength":67416,"byteOffset":464124,"target":34962},{"buffer":0,"byteLength":44944,"byteOffset":531540,"target":34962},{"buffer":0,"byteLength":26070,"byteOffset":576484,"target":34963},{"buffer":0,"byteLength":61440,"byteOffset":602556,"target":34962},{"buffer":0,"byteLength":46080,"byteOffset":663996,"target":34962},{"buffer":0,"byteLength":46080,"byteOffset":710076,"target":34962},{"buffer":0,"byteLength":30720,"byteOffset":756156,"target":34962},{"buffer":0,"byteLength":11520,"byteOffset":786876,"target":34963},{"buffer":0,"byteLength":34384,"byteOffset":798396,"target":34962},{"buffer":0,"byteLength":25788,"byteOffset":832780,"target":34962},{"buffer":0,"byteLength":25788,"byteOffset":858568,"target":34962},{"buffer":0,"byteLength":17192,"byteOffset":884356,"target":34962},{"buffer":0,"byteLength":10230,"byteOffset":901548,"target":34963},{"buffer":0,"byteLength":57600,"byteOffset":911780,"target":34962},{"buffer":0,"byteLength":43200,"byteOffset":969380,"target":34962},{"buffer":0,"byteLength":43200,"byteOffset":1012580,"target":34962},{"buffer":0,"byteLength":28800,"byteOffset":1055780,"target":34962},{"buffer":0,"byteLength":10800,"byteOffset":1084580,"target":34963},{"buffer":0,"byteLength":69248,"byteOffset":1095380,"target":34962},{"buffer":0,"byteLength":51936,"byteOffset":1164628,"target":34962},{"buffer":0,"byteLength":51936,"byteOffset":1216564,"target":34962},{"buffer":0,"byteLength":34624,"byteOffset":1268500,"target":34962},{"buffer":0,"byteLength":19680,"byteOffset":1303124,"target":34963},{"buffer":0,"byteLength":25152,"byteOffset":1322804,"target":34962},{"buffer":0,"byteLength":18864,"byteOffset":1347956,"target":34962},{"buffer":0,"byteLength":18864,"byteOffset":1366820,"target":34962},{"buffer":0,"byteLength":12576,"byteOffset":1385684,"target":34962},{"buffer":0,"byteLength":4716,"byteOffset":1398260,"target":34963},{"buffer":0,"byteLength":28800,"byteOffset":1402976,"target":34962},{"buffer":0,"byteLength":21600,"byteOffset":1431776,"target":34962},{"buffer":0,"byteLength":21600,"byteOffset":1453376,"target":34962},{"buffer":0,"byteLength":14400,"byteOffset":1474976,"target":34962},{"buffer":0,"byteLength":5400,"byteOffset":1489376,"target":34963},{"buffer":0,"byteLength":28800,"byteOffset":1494776,"target":34962},{"buffer":0,"byteLength":21600,"byteOffset":1523576,"target":34962},{"buffer":0,"byteLength":21600,"byteOffset":1545176,"target":34962},{"buffer":0,"byteLength":14400,"byteOffset":1566776,"target":34962},{"buffer":0,"byteLength":5400,"byteOffset":1581176,"target":34963},{"buffer":0,"byteLength":11440,"byteOffset":1586576,"target":34962},{"buffer":0,"byteLength":8580,"byteOffset":1598016,"target":34962},{"buffer":0,"byteLength":8580,"byteOffset":1606596,"target":34962},{"buffer":0,"byteLength":5720,"byteOffset":1615176,"target":34962},{"buffer":0,"byteLength":2808,"byteOffset":1620896,"target":34963},{"buffer":0,"byteLength":4264,"byteOffset":1623704,"target":34962},{"buffer":0,"byteLength":6396,"byteOffset":1627968,"target":34962},{"buffer":0,"byteLength":6396,"byteOffset":1634364,"target":34962},{"buffer":0,"byteLength":4264,"byteOffset":1640760,"target":34962},{"buffer":0,"byteLength":4260,"byteOffset":1645024,"target":34963},{"buffer":0,"byteLength":384,"byteOffset":1649284,"target":34962},{"buffer":0,"byteLength":576,"byteOffset":1649668,"target":34962},{"buffer":0,"byteLength":576,"byteOffset":1650244,"target":34962},{"buffer":0,"byteLength":384,"byteOffset":1650820,"target":34962},{"buffer":0,"byteLength":270,"byteOffset":1651204,"target":34963},{"buffer":0,"byteLength":2416,"byteOffset":1651476,"target":34962},{"buffer":0,"byteLength":3624,"byteOffset":1653892,"target":34962},{"buffer":0,"byteLength":3624,"byteOffset":1657516,"target":34962},{"buffer":0,"byteLength":2416,"byteOffset":1661140,"target":34962},{"buffer":0,"byteLength":2940,"byteOffset":1663556,"target":34963},{"buffer":0,"byteLength":8000,"byteOffset":1666496,"target":34962},{"buffer":0,"byteLength":12000,"byteOffset":1674496,"target":34962},{"buffer":0,"byteLength":12000,"byteOffset":1686496,"target":34962},{"buffer":0,"byteLength":8000,"byteOffset":1698496,"target":34962},{"buffer":0,"byteLength":7200,"byteOffset":1706496,"target":34963},{"buffer":0,"byteLength":1224,"byteOffset":1713696,"target":34962},{"buffer":0,"byteLength":1836,"byteOffset":1714920,"target":34962},{"buffer":0,"byteLength":1836,"byteOffset":1716756,"target":34962},{"buffer":0,"byteLength":1224,"byteOffset":1718592,"target":34962},{"buffer":0,"byteLength":930,"byteOffset":1719816,"target":34963},{"buffer":0,"byteLength":1944,"byteOffset":1720748,"target":34962},{"buffer":0,"byteLength":2916,"byteOffset":1722692,"target":34962},{"buffer":0,"byteLength":2916,"byteOffset":1725608,"target":34962},{"buffer":0,"byteLength":1944,"byteOffset":1728524,"target":34962},{"buffer":0,"byteLength":1728,"byteOffset":1730468,"target":34963}],"buffers":[{"uri":"street-art.bin","byteLength":1732196}]}